<svg width="25" height="24" viewBox="0 0 25 24" fill="none" xmlns="http://www.w3.org/2000/svg">
<circle cx="18.5" cy="12" r="2" fill="white"/>
<g filter="url(#filter0_i_23_808)">
<path d="M21.64 8.002C21.64 6.821 21.596 5.554 20.842 4.647C20.7683 4.55815 20.6905 4.47272 20.609 4.391C19.86 3.643 18.911 3.311 17.739 3.153C16.599 3 15.144 3 13.306 3H11.194C9.356 3 7.9 3 6.76 3.153C5.588 3.311 4.639 3.643 3.89 4.391C3.142 5.14 2.81 6.089 2.652 7.261C2.5 8.401 2.5 9.856 2.5 11.694V11.806C2.5 13.644 2.5 15.1 2.653 16.239C2.811 17.411 3.143 18.36 3.891 19.109C4.64 19.857 5.589 20.189 6.761 20.347C7.901 20.5 9.356 20.5 11.194 20.5H13.306C15.144 20.5 16.6 20.5 17.739 20.347C18.911 20.189 19.86 19.857 20.609 19.109C20.8082 18.9092 20.9846 18.6878 21.135 18.449C21.585 17.729 21.639 16.847 21.639 15.999L21.489 16H18.715C16.444 16 14.5 14.264 14.5 12C14.5 9.736 16.444 8 18.715 8H21.488C21.54 8 21.592 8 21.64 8.002Z" fill="#ED1C24"/>
</g>
<path d="M6.25 7C6.05109 7 5.86032 7.07902 5.71967 7.21967C5.57902 7.36032 5.5 7.55109 5.5 7.75C5.5 7.94891 5.57902 8.13968 5.71967 8.28033C5.86032 8.42098 6.05109 8.5 6.25 8.5H10.25C10.4489 8.5 10.6397 8.42098 10.7803 8.28033C10.921 8.13968 11 7.94891 11 7.75C11 7.55109 10.921 7.36032 10.7803 7.21967C10.6397 7.07902 10.4489 7 10.25 7H6.25Z" fill="white"/>
<g filter="url(#filter1_i_23_808)">
<path fill-rule="evenodd" clip-rule="evenodd" d="M21.688 8.004C21.626 8 21.558 8 21.488 8H18.715C16.444 8 14.5 9.736 14.5 12C14.5 14.264 16.444 16 18.715 16H21.488C21.558 16 21.626 16 21.688 15.996C22.611 15.94 23.427 15.239 23.496 14.259C23.5 14.195 23.5 14.126 23.5 14.062V9.938C23.5 9.874 23.5 9.805 23.496 9.741C23.427 8.761 22.611 8.061 21.688 8.004ZM18.471 13.067C19.055 13.067 19.529 12.589 19.529 12C19.529 11.41 19.055 10.933 18.471 10.933C17.886 10.933 17.411 11.411 17.411 12C17.411 12.59 17.886 13.067 18.471 13.067Z" fill="#6B121C"/>
</g>
<defs>
<filter id="filter0_i_23_808" x="2.5" y="1" width="19.1401" height="19.5" filterUnits="userSpaceOnUse" color-interpolation-filters="sRGB">
<feFlood flood-opacity="0" result="BackgroundImageFix"/>
<feBlend mode="normal" in="SourceGraphic" in2="BackgroundImageFix" result="shape"/>
<feColorMatrix in="SourceAlpha" type="matrix" values="0 0 0 0 0 0 0 0 0 0 0 0 0 0 0 0 0 0 127 0" result="hardAlpha"/>
<feOffset dy="-2"/>
<feGaussianBlur stdDeviation="1.65"/>
<feComposite in2="hardAlpha" operator="arithmetic" k2="-1" k3="1"/>
<feColorMatrix type="matrix" values="0 0 0 0 1 0 0 0 0 1 0 0 0 0 1 0 0 0 0.35 0"/>
<feBlend mode="normal" in2="shape" result="effect1_innerShadow_23_808"/>
</filter>
<filter id="filter1_i_23_808" x="14.5" y="6" width="9" height="10" filterUnits="userSpaceOnUse" color-interpolation-filters="sRGB">
<feFlood flood-opacity="0" result="BackgroundImageFix"/>
<feBlend mode="normal" in="SourceGraphic" in2="BackgroundImageFix" result="shape"/>
<feColorMatrix in="SourceAlpha" type="matrix" values="0 0 0 0 0 0 0 0 0 0 0 0 0 0 0 0 0 0 127 0" result="hardAlpha"/>
<feOffset dy="-2"/>
<feGaussianBlur stdDeviation="1.65"/>
<feComposite in2="hardAlpha" operator="arithmetic" k2="-1" k3="1"/>
<feColorMatrix type="matrix" values="0 0 0 0 1 0 0 0 0 1 0 0 0 0 1 0 0 0 0.35 0"/>
<feBlend mode="normal" in2="shape" result="effect1_innerShadow_23_808"/>
</filter>
</defs>
</svg>
