<svg width="16" height="16" viewBox="0 0 16 16" fill="none" xmlns="http://www.w3.org/2000/svg">
<rect width="16" height="16" rx="8" fill="black"/>
<g clip-path="url(#clip0_246_9086)">
<path d="M10.312 8.95986L11.671 10.3179L7.9945 13.9944L4.318 10.3184L5.6765 8.95986L7.9945 11.2899L10.312 8.95986ZM12.6305 6.64186L14 7.99986L12.6425 9.35786L11.284 7.99986L12.6305 6.64186ZM7.9945 6.64186L9.3525 7.98786L7.994 9.34636L6.636 7.99986L7.9945 6.64186ZM3.358 6.64186L4.705 7.99986L3.359 9.34586L2 7.99986L3.358 6.64186ZM7.995 2.00586L11.67 5.66986L10.3115 7.02736L7.995 4.70986L5.677 7.03986L4.3185 5.68186L7.995 2.00586Z" fill="#F0B90B"/>
</g>
<defs>
<clipPath id="clip0_246_9086">
<rect width="12" height="12" fill="white" transform="translate(2 2)"/>
</clipPath>
</defs>
</svg>
