<svg width="24" height="24" viewBox="0 0 24 24" fill="none" xmlns="http://www.w3.org/2000/svg">
<path d="M23.641 14.9019C22.0377 21.3339 15.5211 25.2439 9.09824 23.6405C2.66605 22.0372 -1.24389 15.5208 0.359519 9.09805C1.96283 2.66605 8.47002 -1.24389 14.9022 0.359519C21.325 1.95346 25.2444 8.46983 23.641 14.9019Z" fill="url(#paint0_linear_394_1850)"/>
<path d="M17.7131 10.5055C17.9475 8.91172 16.7381 8.04922 15.0693 7.47735L15.6131 5.31172L14.3006 4.98359L13.7756 7.09297C13.4287 7.00859 13.0725 6.92422 12.7162 6.84922L13.2412 4.73047L11.9287 4.40234L11.3943 6.55859C11.1037 6.49297 10.8225 6.42734 10.5506 6.36172V6.35234L8.73184 5.90234L8.38496 7.30859C8.38496 7.30859 9.35996 7.53359 9.34121 7.54297C9.87559 7.67422 9.96934 8.03047 9.95059 8.31172L9.33184 10.7773C9.36934 10.7867 9.41621 10.7961 9.47246 10.8242C9.42559 10.8148 9.37871 10.8055 9.33184 10.7867L8.46934 14.2367C8.40371 14.3961 8.23496 14.6398 7.86934 14.5461C7.87871 14.5648 6.91309 14.3117 6.91309 14.3117L6.25684 15.8211L7.97246 16.2523C8.29121 16.3367 8.60059 16.4117 8.90996 16.4961L8.36621 18.6805L9.67871 19.0086L10.2225 16.843C10.5787 16.9367 10.935 17.0305 11.2725 17.1149L10.7381 19.2711L12.0506 19.5992L12.5943 17.4149C14.8443 17.8367 16.5318 17.668 17.235 15.6336C17.8068 14.0023 17.2068 13.0555 16.0256 12.4367C16.8975 12.2398 17.5443 11.668 17.7131 10.5055ZM14.7037 14.7242C14.3006 16.3555 11.5443 15.4742 10.6537 15.2492L11.3756 12.3523C12.2662 12.5773 15.135 13.018 14.7037 14.7242ZM15.1162 10.4773C14.7412 11.968 12.4537 11.2086 11.7131 11.0211L12.3693 8.3961C13.11 8.5836 15.5006 8.93047 15.1162 10.4773Z" fill="white"/>
<defs>
<linearGradient id="paint0_linear_394_1850" x1="1199.35" y1="-0.576" x2="1199.35" y2="2399.76" gradientUnits="userSpaceOnUse">
<stop stop-color="#F9AA4B"/>
<stop offset="1" stop-color="#F7931A"/>
</linearGradient>
</defs>
</svg>
