<svg width="25" height="24" viewBox="0 0 25 24" fill="none" xmlns="http://www.w3.org/2000/svg">
<path d="M22.625 12C22.625 8.229 22.625 6.343 21.453 5.172C20.281 4.001 18.396 4 14.625 4H10.625C6.854 4 4.968 4 3.797 5.172C2.626 6.344 2.625 8.229 2.625 12C2.625 15.771 2.625 17.657 3.797 18.828C4.969 19.999 6.854 20 10.625 20H14.625C18.396 20 20.282 20 21.453 18.828C22.107 18.175 22.396 17.3 22.523 16M10.625 16H6.625M14.625 16H13.125M2.625 10H7.625M22.625 10H11.625" stroke="#333333" stroke-width="2" stroke-linecap="round"/>
</svg>
