<svg width="24" height="24" viewBox="0 0 24 24" fill="none" xmlns="http://www.w3.org/2000/svg">
<rect width="24" height="24" rx="12" fill="#0054A6"/>
<path d="M6 10.6667V10.3333C6 9.59695 6.59695 9 7.33333 9H16.6667C17.403 9 18 9.59695 18 10.3333V16.6667C18 17.403 17.403 18 16.6667 18H14.3333" stroke="white" stroke-width="1.5" stroke-linecap="round"/>
<path d="M6 11V7.33333C6 6.59695 6.59695 6 7.33333 6H14.6667C15.403 6 16 6.59695 16 7.33333V9" stroke="white" stroke-width="1.5" stroke-linecap="round"/>
<path d="M9.5 19C9.6225 19 9.73581 18.9444 9.96287 18.8329L11.7881 17.9386C12.5962 17.5427 13 17.3445 13 17.0312V13.0938M9.5 19C9.3775 19 9.26419 18.9444 9.03713 18.8329L7.21187 17.9386C6.40381 17.5427 6 17.3445 6 17.0312V13.0938M9.5 19V15.0625" stroke="white" stroke-width="1.5" stroke-linecap="round" stroke-linejoin="round"/>
<path d="M9.03713 11.2921C9.26463 11.1806 9.37794 11.125 9.5 11.125C9.6225 11.125 9.73581 11.1806 9.96287 11.2921L11.7881 12.1864C12.5962 12.5823 13 12.7805 13 13.0937C13 13.407 12.5962 13.6052 11.7881 14.0011L9.96287 14.8954C9.73537 15.0069 9.62206 15.0625 9.5 15.0625C9.3775 15.0625 9.26419 15.0069 9.03713 14.8954L7.21187 14.0011C6.40381 13.6052 6 13.407 6 13.0937C6 12.7805 6.40381 12.5823 7.21187 12.1864L9.03713 11.2921Z" stroke="white" stroke-width="1.5" stroke-linecap="round" stroke-linejoin="round"/>
</svg>
