<svg width="41" height="40" viewBox="0 0 41 40" fill="none" xmlns="http://www.w3.org/2000/svg">
<path d="M8.8335 31.6673L15.8335 15.334L32.1668 8.33398L25.1668 24.6673L8.8335 31.6673Z" fill="white" fill-opacity="0.25"/>
<path d="M20.5002 36.6673C11.2952 36.6673 3.8335 29.2057 3.8335 20.0007C3.8335 10.7957 11.2952 3.33398 20.5002 3.33398C29.7052 3.33398 37.1668 10.7957 37.1668 20.0007C37.1668 29.2057 29.7052 36.6673 20.5002 36.6673ZM16.5068 16.0073L13.2452 27.2557L24.4952 23.994L27.7552 12.7457L16.5068 16.0073Z" fill="#757575"/>
<path d="M20.5002 36.6673C11.2952 36.6673 3.8335 29.2057 3.8335 20.0007C3.8335 10.7957 11.2952 3.33398 20.5002 3.33398C29.7052 3.33398 37.1668 10.7957 37.1668 20.0007C37.1668 29.2057 29.7052 36.6673 20.5002 36.6673ZM16.5068 16.0073L13.2452 27.2557L24.4952 23.994L27.7552 12.7457L16.5068 16.0073Z" stroke="#E0E0E0"/>
<circle cx="20.5002" cy="20.0007" r="1.66667" fill="#757575"/>
</svg>
