<svg width="25" height="24" viewBox="0 0 25 24" fill="none" xmlns="http://www.w3.org/2000/svg">
<path d="M3.5 13C7.1 5 17.9 5 21.5 13" stroke="white" stroke-width="1.5" stroke-linecap="round" stroke-linejoin="round"/>
<path d="M12.5 17C12.106 17 11.7159 16.9224 11.3519 16.7716C10.988 16.6209 10.6573 16.3999 10.3787 16.1213C10.1001 15.8427 9.87913 15.512 9.72836 15.1481C9.5776 14.7841 9.5 14.394 9.5 14C9.5 13.606 9.5776 13.2159 9.72836 12.8519C9.87913 12.488 10.1001 12.1573 10.3787 11.8787C10.6573 11.6001 10.988 11.3791 11.3519 11.2284C11.7159 11.0776 12.106 11 12.5 11C13.2956 11 14.0587 11.3161 14.6213 11.8787C15.1839 12.4413 15.5 13.2044 15.5 14C15.5 14.7956 15.1839 15.5587 14.6213 16.1213C14.0587 16.6839 13.2956 17 12.5 17Z" stroke="white" stroke-width="1.5" stroke-linecap="round" stroke-linejoin="round"/>
</svg>
