<svg width="32" height="32" viewBox="0 0 32 32" fill="none" xmlns="http://www.w3.org/2000/svg">
<g clip-path="url(#clip0_81_9416)">
<circle cx="23.3023" cy="17.526" r="2.4127" fill="white"/>
<g filter="url(#filter0_i_81_9416)">
<path d="M27.0895 12.7021C27.0895 11.2774 27.0364 9.74898 26.1269 8.65483C26.0379 8.54764 25.9441 8.44459 25.8458 8.346C24.9422 7.44365 23.7974 7.04314 22.3836 6.85254C21.0083 6.66797 19.2531 6.66797 17.0358 6.66797H14.488C12.2707 6.66797 10.5143 6.66797 9.13905 6.85254C7.72521 7.04314 6.58038 7.44365 5.67683 8.346C4.77448 9.24956 4.37397 10.3944 4.18337 11.8082C4 13.1835 4 14.9387 4 17.156V17.2911C4 19.5083 4 21.2648 4.18457 22.6388C4.37517 24.0527 4.77568 25.1975 5.67803 26.101C6.58159 27.0034 7.72641 27.4039 9.14025 27.5945C10.5155 27.7791 12.2707 27.7791 14.488 27.7791H17.0358C19.2531 27.7791 21.0095 27.7791 22.3836 27.5945C23.7974 27.4039 24.9422 27.0034 25.8458 26.101C26.0861 25.86 26.2989 25.5929 26.4803 25.3049C27.0232 24.4363 27.0883 23.3723 27.0883 22.3493L26.9074 22.3505H23.561C20.8213 22.3505 18.4762 20.2563 18.4762 17.5251C18.4762 14.7939 20.8213 12.6997 23.561 12.6997H26.9062C26.9689 12.6997 27.0316 12.6997 27.0895 12.7021Z" fill="#ED1C24"/>
</g>
<g filter="url(#filter1_i_81_9416)">
<path fill-rule="evenodd" clip-rule="evenodd" d="M27.1478 12.708C27.073 12.7031 26.991 12.7031 26.9065 12.7031H23.5613C20.8217 12.7031 18.4766 14.7973 18.4766 17.5285C18.4766 20.2597 20.8217 22.3539 23.5613 22.3539H26.9065C26.991 22.3539 27.073 22.3539 27.1478 22.3491C28.2613 22.2815 29.2456 21.4359 29.3289 20.2537C29.3337 20.1765 29.3337 20.0932 29.3337 20.016V15.041C29.3337 14.9638 29.3337 14.8806 29.3289 14.8034C29.2456 13.6212 28.2613 12.7767 27.1478 12.708ZM23.267 18.8157C23.9715 18.8157 24.5433 18.2391 24.5433 17.5285C24.5433 16.8168 23.9715 16.2413 23.267 16.2413C22.5613 16.2413 21.9882 16.818 21.9882 17.5285C21.9882 18.2403 22.5613 18.8157 23.267 18.8157Z" fill="#6B121C"/>
</g>
<path d="M13.8503 17.9203L6.72865 13.743C6.54722 13.6384 6.3881 13.4992 6.26036 13.3332L6.78868 12.9266L6.26036 13.3332C6.13188 13.1662 6.03767 12.9755 5.98315 12.7721C5.92863 12.5686 5.91487 12.3563 5.94266 12.1475L6.6035 12.2355L5.94266 12.1475C5.97041 11.939 6.03904 11.7381 6.14461 11.5562C6.3569 11.1889 6.7063 10.9208 7.11607 10.811L7.11621 10.8109L8.69177 10.3887C8.36732 9.41506 7.95332 8.47932 7.3263 7.65272C6.57003 6.65571 5.48084 5.78763 3.7913 5.23021L1.67161 4.53086L3.82763 3.95316L4.7302 3.71131C9.04539 2.55506 13.4617 4.71178 15.2922 8.62017L17.0444 8.15066L17.0455 8.15038C17.3511 8.06902 17.674 8.07994 17.9734 8.18178C18.2728 8.28361 18.5354 8.4718 18.7281 8.72263C18.9207 8.97346 19.0348 9.2757 19.056 9.59127C19.0771 9.90632 19.0047 10.2206 18.8478 10.4946C18.8475 10.495 18.8473 10.4955 18.847 10.4959L14.7672 17.6747L14.4333 18.2622L13.8503 17.9203Z" fill="#0054A6" stroke="white" stroke-width="1.33333"/>
</g>
<defs>
<filter id="filter0_i_81_9416" x="4" y="4.25527" width="23.0898" height="23.524" filterUnits="userSpaceOnUse" color-interpolation-filters="sRGB">
<feFlood flood-opacity="0" result="BackgroundImageFix"/>
<feBlend mode="normal" in="SourceGraphic" in2="BackgroundImageFix" result="shape"/>
<feColorMatrix in="SourceAlpha" type="matrix" values="0 0 0 0 0 0 0 0 0 0 0 0 0 0 0 0 0 0 127 0" result="hardAlpha"/>
<feOffset dy="-2.4127"/>
<feGaussianBlur stdDeviation="1.99048"/>
<feComposite in2="hardAlpha" operator="arithmetic" k2="-1" k3="1"/>
<feColorMatrix type="matrix" values="0 0 0 0 1 0 0 0 0 1 0 0 0 0 1 0 0 0 0.35 0"/>
<feBlend mode="normal" in2="shape" result="effect1_innerShadow_81_9416"/>
</filter>
<filter id="filter1_i_81_9416" x="18.4766" y="10.2904" width="10.8574" height="12.0631" filterUnits="userSpaceOnUse" color-interpolation-filters="sRGB">
<feFlood flood-opacity="0" result="BackgroundImageFix"/>
<feBlend mode="normal" in="SourceGraphic" in2="BackgroundImageFix" result="shape"/>
<feColorMatrix in="SourceAlpha" type="matrix" values="0 0 0 0 0 0 0 0 0 0 0 0 0 0 0 0 0 0 127 0" result="hardAlpha"/>
<feOffset dy="-2.4127"/>
<feGaussianBlur stdDeviation="1.99048"/>
<feComposite in2="hardAlpha" operator="arithmetic" k2="-1" k3="1"/>
<feColorMatrix type="matrix" values="0 0 0 0 1 0 0 0 0 1 0 0 0 0 1 0 0 0 0.35 0"/>
<feBlend mode="normal" in2="shape" result="effect1_innerShadow_81_9416"/>
</filter>
<clipPath id="clip0_81_9416">
<rect width="32" height="32" fill="white"/>
</clipPath>
</defs>
</svg>
