<svg width="393" height="852" viewBox="0 0 393 852" fill="none" xmlns="http://www.w3.org/2000/svg">
<g clip-path="url(#clip0_284_8404)">
<rect width="393" height="852" fill="#F5FAFF"/>
<rect width="393" height="852" fill="#6B121C"/>
<rect width="393" height="852" fill="url(#paint0_linear_284_8404)" fill-opacity="0.8"/>
<rect opacity="0.2" x="14.8623" y="896.333" width="428.36" height="21.758" transform="rotate(-39.998 14.8623 896.333)" fill="url(#paint1_linear_284_8404)"/>
<rect opacity="0.2" x="-118" y="690.47" width="315" height="16" transform="rotate(-39.998 -118 690.47)" fill="url(#paint2_linear_284_8404)"/>
<rect opacity="0.2" x="-76" y="1008.07" width="428.36" height="8.15925" transform="rotate(-39.998 -76 1008.07)" fill="url(#paint3_linear_284_8404)"/>
<path opacity="0.2" d="M498 1096C322.926 1096 181 954.298 181 779.5C181 604.702 322.926 463 498 463" stroke="url(#paint4_linear_284_8404)"/>
<path opacity="0.2" d="M559.958 752.321C516.945 677.033 401.023 662.307 301.038 719.429C201.053 776.551 154.869 883.891 197.882 959.179" stroke="url(#paint5_linear_284_8404)"/>
<path d="M19.0972 719.903L0 673.723L120.139 699.417L140.972 754.278L19.0972 719.903Z" fill="url(#paint6_linear_284_8404)"/>
<path d="M19.0972 719.903L0 673.723L120.139 699.417L140.972 754.278L19.0972 719.903Z" fill="black" fill-opacity="0.6"/>
<path d="M141.667 754.625L10.417 855.319L19.0975 719.902L141.667 754.625Z" fill="url(#paint7_linear_284_8404)"/>
<path d="M141.667 754.625L10.417 855.319L19.0975 719.902L141.667 754.625Z" fill="black" fill-opacity="0.2"/>
<path d="M141.667 754.625L10.417 855.319L19.0975 719.902L141.667 754.625Z" fill="url(#paint8_linear_284_8404)"/>
<path d="M19.0972 719.903L0 673.723L10.4167 855.32L19.0972 719.903Z" fill="url(#paint9_linear_284_8404)"/>
<path d="M19.0972 719.903L0 673.723L10.4167 855.32L19.0972 719.903Z" fill="black" fill-opacity="0.5"/>
<path d="M150 734.139C144.097 674.185 132.986 551.5 132.986 539L26.3887 700.111L150 734.139Z" fill="url(#paint10_linear_284_8404)"/>
<path d="M150 734.139C144.097 674.185 132.986 551.5 132.986 539L26.3887 700.111L150 734.139Z" fill="black" fill-opacity="0.1"/>
<path d="M150 734.139C144.097 674.185 132.986 551.5 132.986 539L26.3887 700.111L150 734.139Z" fill="url(#paint11_linear_284_8404)"/>
<path d="M6.25 652.889L132.986 539L26.0417 700.458L6.25 652.889Z" fill="url(#paint12_linear_284_8404)"/>
<path d="M6.25 652.889L132.986 539L26.0417 700.458L6.25 652.889Z" fill="black" fill-opacity="0.3"/>
<path d="M6.25 652.889L132.986 539L26.0417 700.458L6.25 652.889Z" fill="url(#paint13_linear_284_8404)"/>
</g>
<defs>
<linearGradient id="paint0_linear_284_8404" x1="196.5" y1="0" x2="196.5" y2="852" gradientUnits="userSpaceOnUse">
<stop offset="0.23" stop-opacity="0"/>
<stop offset="1" stop-opacity="0.4"/>
</linearGradient>
<linearGradient id="paint1_linear_284_8404" x1="548.918" y1="901.574" x2="547.965" y2="923.191" gradientUnits="userSpaceOnUse">
<stop stop-color="#FF8287"/>
<stop offset="1" stop-color="#FF8287" stop-opacity="0"/>
</linearGradient>
<linearGradient id="paint2_linear_284_8404" x1="274.724" y1="694.323" x2="274.023" y2="710.22" gradientUnits="userSpaceOnUse">
<stop stop-color="#FF8287"/>
<stop offset="1" stop-color="#FF8287" stop-opacity="0"/>
</linearGradient>
<linearGradient id="paint3_linear_284_8404" x1="458.055" y1="1010.04" x2="457.921" y2="1018.16" gradientUnits="userSpaceOnUse">
<stop stop-color="#FF8287"/>
<stop offset="1" stop-color="#FF8287" stop-opacity="0"/>
</linearGradient>
<linearGradient id="paint4_linear_284_8404" x1="331.053" y1="469.749" x2="660.217" y2="798.315" gradientUnits="userSpaceOnUse">
<stop stop-color="white" stop-opacity="0.4"/>
<stop offset="1" stop-color="white" stop-opacity="0"/>
</linearGradient>
<linearGradient id="paint5_linear_284_8404" x1="292.221" y1="726.394" x2="396.285" y2="848.513" gradientUnits="userSpaceOnUse">
<stop stop-color="white" stop-opacity="0.4"/>
<stop offset="1" stop-color="white" stop-opacity="0"/>
</linearGradient>
<linearGradient id="paint6_linear_284_8404" x1="70.4861" y1="714" x2="170.781" y2="778.311" gradientUnits="userSpaceOnUse">
<stop stop-color="#6B121C"/>
<stop offset="1" stop-color="#ED1C24"/>
</linearGradient>
<linearGradient id="paint7_linear_284_8404" x1="76.042" y1="787.611" x2="193.055" y2="829.167" gradientUnits="userSpaceOnUse">
<stop stop-color="#6B121C"/>
<stop offset="1" stop-color="#ED1C24"/>
</linearGradient>
<linearGradient id="paint8_linear_284_8404" x1="128" y1="890" x2="56.0133" y2="816.321" gradientUnits="userSpaceOnUse">
<stop stop-color="#FF8287"/>
<stop offset="1" stop-color="#FF8287" stop-opacity="0"/>
</linearGradient>
<linearGradient id="paint9_linear_284_8404" x1="9.54861" y1="764.521" x2="28.6933" y2="765.259" gradientUnits="userSpaceOnUse">
<stop stop-color="#6B121C"/>
<stop offset="1" stop-color="#ED1C24"/>
</linearGradient>
<linearGradient id="paint10_linear_284_8404" x1="88.1942" y1="636.569" x2="205.952" y2="663.902" gradientUnits="userSpaceOnUse">
<stop stop-color="#6B121C"/>
<stop offset="1" stop-color="#ED1C24"/>
</linearGradient>
<linearGradient id="paint11_linear_284_8404" x1="180.5" y1="586" x2="88" y2="653.5" gradientUnits="userSpaceOnUse">
<stop stop-color="#FF8287"/>
<stop offset="1" stop-color="#FF8287" stop-opacity="0"/>
</linearGradient>
<linearGradient id="paint12_linear_284_8404" x1="69.6181" y1="619.729" x2="187.136" y2="653.529" gradientUnits="userSpaceOnUse">
<stop stop-color="#6B121C"/>
<stop offset="1" stop-color="#ED1C24"/>
</linearGradient>
<linearGradient id="paint13_linear_284_8404" x1="39.5" y1="557" x2="74.6818" y2="596.76" gradientUnits="userSpaceOnUse">
<stop offset="0.669" stop-color="#FF8287" stop-opacity="0.7"/>
<stop offset="1" stop-color="#FF8287" stop-opacity="0"/>
</linearGradient>
<clipPath id="clip0_284_8404">
<rect width="393" height="852" fill="white"/>
</clipPath>
</defs>
</svg>
