<svg width="32" height="14" viewBox="0 0 32 14" fill="none" xmlns="http://www.w3.org/2000/svg">
<path d="M9.5 3.5H13.5V7.5" stroke="#167E8D" stroke-linecap="round" stroke-linejoin="round"/>
<path d="M13.5 3.5L7.85 9.15C7.75654 9.24161 7.63088 9.29293 7.5 9.29293C7.36912 9.29293 7.24346 9.24161 7.15 9.15L4.85 6.85C4.75654 6.75839 4.63088 6.70707 4.5 6.70707C4.36912 6.70707 4.24346 6.75839 4.15 6.85L0.5 10.5" stroke="#167E8D" stroke-linecap="round" stroke-linejoin="round"/>
<path d="M27.5 10.5H31.5V6.5" stroke="#F44336" stroke-linecap="round" stroke-linejoin="round"/>
<path d="M31.5 10.5L25.85 4.85C25.7565 4.75839 25.6309 4.70707 25.5 4.70707C25.3691 4.70707 25.2435 4.75839 25.15 4.85L22.85 7.15C22.7565 7.24161 22.6309 7.29293 22.5 7.29293C22.3691 7.29293 22.2435 7.24161 22.15 7.15L18.5 3.5" stroke="#F44336" stroke-linecap="round" stroke-linejoin="round"/>
</svg>
