<svg width="25" height="24" viewBox="0 0 25 24" fill="none" xmlns="http://www.w3.org/2000/svg">
<rect x="7.5" y="8" width="7" height="2" fill="white"/>
<rect x="17.5" y="12" width="3" height="8" fill="white"/>
<rect x="7.5" y="13" width="5" height="2" fill="white"/>
<path d="M16.5 3C17.0046 2.99984 17.4906 3.19041 17.8605 3.5335C18.2305 3.87659 18.4572 4.34684 18.495 4.85L18.5 5V10H20C20.3729 10 20.7324 10.1389 21.0084 10.3896C21.2844 10.6403 21.4572 10.9848 21.493 11.356L21.5 11.5V19C21.5 19.7652 21.2077 20.5015 20.6827 21.0583C20.1578 21.615 19.4399 21.9501 18.676 21.995L18.5 22H5.5C4.99542 22.0002 4.50943 21.8096 4.13945 21.4665C3.76947 21.1234 3.54284 20.6532 3.505 20.15L3.5 20V5C3.49984 4.49542 3.69041 4.00943 4.0335 3.63945C4.37659 3.26947 4.84684 3.04284 5.35 3.005L5.5 3H16.5ZM19.5 12H18.5V20C18.7652 20 19.0196 19.8946 19.2071 19.7071C19.3946 19.5196 19.5 19.2652 19.5 19V12ZM11.5 13H8.5C8.24512 13.0003 7.99997 13.0979 7.81463 13.2728C7.6293 13.4478 7.51777 13.687 7.50283 13.9414C7.48789 14.1958 7.57067 14.4464 7.73426 14.6418C7.89786 14.8373 8.1299 14.9629 8.383 14.993L8.5 15H11.5C11.7549 14.9997 12 14.9021 12.1854 14.7272C12.3707 14.5522 12.4822 14.313 12.4972 14.0586C12.5121 13.8042 12.4293 13.5536 12.2657 13.3582C12.1021 13.1627 11.8701 13.0371 11.617 13.007L11.5 13ZM13.5 8H8.5C8.23478 8 7.98043 8.10536 7.79289 8.29289C7.60536 8.48043 7.5 8.73478 7.5 9C7.5 9.26522 7.60536 9.51957 7.79289 9.70711C7.98043 9.89464 8.23478 10 8.5 10H13.5C13.7652 10 14.0196 9.89464 14.2071 9.70711C14.3946 9.51957 14.5 9.26522 14.5 9C14.5 8.73478 14.3946 8.48043 14.2071 8.29289C14.0196 8.10536 13.7652 8 13.5 8Z" fill="#757575"/>
</svg>
