<svg width="57" height="56" viewBox="0 0 57 56" fill="none" xmlns="http://www.w3.org/2000/svg">
<path d="M43.8123 23.9287V14.6367C43.8123 12.9799 42.4692 11.6367 40.8123 11.6367H22.4307C20.7738 11.6367 19.4307 12.9799 19.4307 14.6367V45.0004C19.4307 46.6572 20.7738 48.0004 22.4307 48.0004H37.4807" stroke="#7C8FAC" stroke-width="2" stroke-linecap="round"/>
<path d="M28.4232 11.6364V11C28.4232 9.34315 27.08 8 25.4232 8H14.8125C13.1556 8 11.8125 9.34315 11.8125 11V35.6494C11.8125 37.3062 13.1556 38.6494 14.8125 38.6494H19" stroke="#7C8FAC" stroke-width="2" stroke-linecap="round"/>
<path d="M35.5752 41.7753C39.6552 41.7753 42.9628 38.4677 42.9628 34.3877C42.9628 30.3076 39.6552 27 35.5752 27C31.4951 27 28.1875 30.3076 28.1875 34.3877C28.1875 38.4677 31.4951 41.7753 35.5752 41.7753Z" stroke="#7C8FAC" stroke-width="2" stroke-linecap="round"/>
<path d="M44.4805 44.7053C44.871 45.0958 45.5042 45.0958 45.8947 44.7053C46.2853 44.3148 46.2853 43.6816 45.8947 43.2911L44.4805 44.7053ZM39.9472 40.172L44.4805 44.7053L45.8947 43.2911L41.3614 38.7577L39.9472 40.172Z" fill="#7C8FAC"/>
</svg>
