<svg width="43" height="42" viewBox="0 0 43 42" fill="none" xmlns="http://www.w3.org/2000/svg">
<rect x="0.5" width="42" height="42" rx="21" fill="#ED1C24"/>
<g clip-path="url(#clip0_413_728)">
<path d="M10.5 21C10.5 21 14.5 13 21.5 13C28.5 13 32.5 21 32.5 21C32.5 21 28.5 29 21.5 29C14.5 29 10.5 21 10.5 21Z" stroke="white" stroke-width="1.5" stroke-linecap="round" stroke-linejoin="round"/>
<path d="M21.5 24C23.1569 24 24.5 22.6569 24.5 21C24.5 19.3431 23.1569 18 21.5 18C19.8431 18 18.5 19.3431 18.5 21C18.5 22.6569 19.8431 24 21.5 24Z" stroke="white" stroke-width="1.5" stroke-linecap="round" stroke-linejoin="round"/>
</g>
<defs>
<clipPath id="clip0_413_728">
<rect width="24" height="24" fill="white" transform="translate(9.5 9)"/>
</clipPath>
</defs>
</svg>
