<svg width="391" height="138" viewBox="0 0 391 138" fill="none" xmlns="http://www.w3.org/2000/svg">
<g filter="url(#filter0_f_93_2708)">
<g filter="url(#filter1_d_93_2708)">
<rect x="15" y="15" width="112.333" height="28" rx="8" fill="white" shape-rendering="crispEdges"/>
<rect x="15.25" y="15.25" width="111.833" height="27.5" rx="7.75" stroke="#E0E0E0" stroke-width="0.5" shape-rendering="crispEdges"/>
<path d="M26.75 33.1193C26.108 33.1193 25.5611 32.9446 25.1094 32.5952C24.6577 32.2429 24.3125 31.733 24.0739 31.0653C23.8352 30.3949 23.7159 29.5852 23.7159 28.6364C23.7159 27.6932 23.8352 26.8878 24.0739 26.2202C24.3153 25.5497 24.6619 25.0384 25.1136 24.6861C25.5682 24.331 26.1136 24.1534 26.75 24.1534C27.3864 24.1534 27.9304 24.331 28.3821 24.6861C28.8366 25.0384 29.1832 25.5497 29.4219 26.2202C29.6634 26.8878 29.7841 27.6932 29.7841 28.6364C29.7841 29.5852 29.6648 30.3949 29.4261 31.0653C29.1875 31.733 28.8423 32.2429 28.3906 32.5952C27.9389 32.9446 27.392 33.1193 26.75 33.1193ZM26.75 32.1818C27.3864 32.1818 27.8807 31.875 28.233 31.2614C28.5852 30.6477 28.7614 29.7727 28.7614 28.6364C28.7614 27.8807 28.6804 27.2372 28.5185 26.706C28.3594 26.1747 28.1293 25.7699 27.8281 25.4915C27.5298 25.2131 27.1705 25.0739 26.75 25.0739C26.1193 25.0739 25.6264 25.3849 25.2713 26.0071C24.9162 26.6264 24.7386 27.5028 24.7386 28.6364C24.7386 29.392 24.8182 30.0341 24.9773 30.5625C25.1364 31.0909 25.3651 31.4929 25.6634 31.7685C25.9645 32.044 26.3267 32.1818 26.75 32.1818ZM34.4716 24.2727V33H33.4148V25.3807H33.3636L31.233 26.7955V25.7216L33.4148 24.2727H34.4716Z" fill="#7C8FAC"/>
<path d="M72.8086 26.3636V27.358H68.8512V26.3636H72.8086ZM70.0046 24.5341H71.1779V31.8125C71.1779 32.1439 71.226 32.3925 71.3221 32.5582C71.4216 32.7206 71.5475 32.83 71.7 32.8864C71.8557 32.9394 72.0198 32.9659 72.1921 32.9659C72.3214 32.9659 72.4275 32.9593 72.5103 32.946C72.5932 32.9295 72.6595 32.9162 72.7092 32.9062L72.9478 33.9602C72.8683 33.9901 72.7573 34.0199 72.6147 34.0497C72.4722 34.0829 72.2916 34.0994 72.0728 34.0994C71.7414 34.0994 71.4166 34.0282 71.0984 33.8857C70.7835 33.7431 70.5217 33.526 70.3129 33.2344C70.1074 32.9427 70.0046 32.5748 70.0046 32.1307V24.5341ZM76.8207 34.179C76.3368 34.179 75.8976 34.0878 75.5032 33.9055C75.1088 33.7199 74.7956 33.4531 74.5636 33.1051C74.3316 32.7538 74.2156 32.3295 74.2156 31.8324C74.2156 31.3949 74.3018 31.0402 74.4741 30.7685C74.6465 30.4934 74.8768 30.2779 75.1652 30.1222C75.4535 29.9664 75.7717 29.8504 76.1197 29.7741C76.471 29.6946 76.824 29.6316 77.1787 29.5852C77.6427 29.5256 78.0189 29.4808 78.3072 29.451C78.5989 29.4179 78.811 29.3632 78.9436 29.2869C79.0795 29.2107 79.1474 29.0781 79.1474 28.8892V28.8494C79.1474 28.3589 79.0132 27.9777 78.7447 27.706C78.4796 27.4342 78.0769 27.2983 77.5366 27.2983C76.9765 27.2983 76.5373 27.4209 76.2191 27.6662C75.901 27.9115 75.6772 28.1733 75.548 28.4517L74.4343 28.054C74.6332 27.59 74.8984 27.2287 75.2298 26.9702C75.5645 26.7083 75.9291 26.526 76.3235 26.4233C76.7213 26.3172 77.1124 26.2642 77.4968 26.2642C77.7421 26.2642 78.0238 26.294 78.342 26.3537C78.6635 26.41 78.9734 26.5277 79.2717 26.7067C79.5733 26.8857 79.8235 27.1558 80.0224 27.517C80.2213 27.8783 80.3207 28.3622 80.3207 28.9688V34H79.1474V32.9659H79.0877C79.0082 33.1316 78.8756 33.3089 78.69 33.4979C78.5044 33.6868 78.2575 33.8475 77.9492 33.9801C77.641 34.1127 77.2648 34.179 76.8207 34.179ZM76.9997 33.125C77.4637 33.125 77.8548 33.0339 78.173 32.8516C78.4945 32.6693 78.7364 32.4339 78.8988 32.1456C79.0645 31.8572 79.1474 31.554 79.1474 31.2358V30.1619C79.0977 30.2216 78.9883 30.2763 78.8193 30.326C78.6536 30.3724 78.4613 30.4138 78.2426 30.4503C78.0271 30.4834 77.8167 30.5133 77.6112 30.5398C77.409 30.563 77.2449 30.5829 77.119 30.5994C76.8141 30.6392 76.529 30.7038 76.2639 30.7933C76.002 30.8795 75.7899 31.0104 75.6275 31.1861C75.4684 31.3584 75.3889 31.5937 75.3889 31.892C75.3889 32.2997 75.5397 32.608 75.8413 32.8168C76.1462 33.0223 76.5323 33.125 76.9997 33.125ZM85.5446 37.0227C84.9778 37.0227 84.4906 36.9498 84.0829 36.804C83.6753 36.6615 83.3356 36.4725 83.0638 36.2372C82.7953 36.0052 82.5815 35.7566 82.4224 35.4915L83.3571 34.8352C83.4632 34.9744 83.5974 35.1335 83.7598 35.3125C83.9222 35.4948 84.1443 35.6522 84.426 35.7848C84.711 35.9207 85.0839 35.9886 85.5446 35.9886C86.1611 35.9886 86.6698 35.8395 87.0709 35.5412C87.4719 35.2429 87.6724 34.7756 87.6724 34.1392V32.5881H87.573C87.4868 32.7273 87.3642 32.8996 87.2051 33.1051C87.0493 33.3073 86.824 33.4879 86.529 33.647C86.2373 33.8028 85.8429 33.8807 85.3457 33.8807C84.7293 33.8807 84.1758 33.7348 83.6852 33.4432C83.198 33.1515 82.8119 32.7273 82.5268 32.1705C82.2451 31.6136 82.1043 30.9375 82.1043 30.142C82.1043 29.3598 82.2418 28.6787 82.5169 28.0987C82.792 27.5154 83.1748 27.0646 83.6653 26.7464C84.1559 26.425 84.7226 26.2642 85.3656 26.2642C85.8628 26.2642 86.2572 26.3471 86.5489 26.5128C86.8438 26.6752 87.0692 26.8608 87.225 27.0696C87.3841 27.2751 87.5067 27.4441 87.5929 27.5767H87.7122V26.3636H88.8457V34.2188C88.8457 34.875 88.6966 35.4086 88.3983 35.8196C88.1033 36.2339 87.7056 36.5372 87.2051 36.7294C86.7079 36.925 86.1544 37.0227 85.5446 37.0227ZM85.5048 32.8267C85.9755 32.8267 86.3732 32.719 86.698 32.5036C87.0228 32.2881 87.2697 31.9782 87.4388 31.5739C87.6078 31.1695 87.6923 30.6856 87.6923 30.1222C87.6923 29.572 87.6095 29.0864 87.4437 28.6655C87.278 28.2446 87.0328 27.9148 86.7079 27.6761C86.3831 27.4375 85.9821 27.3182 85.5048 27.3182C85.0077 27.3182 84.5934 27.4441 84.2619 27.696C83.9338 27.9479 83.6869 28.286 83.5212 28.7102C83.3588 29.1345 83.2776 29.6051 83.2776 30.1222C83.2776 30.6525 83.3604 31.1214 83.5261 31.5291C83.6952 31.9335 83.9437 32.2517 84.2719 32.4837C84.6033 32.7124 85.0143 32.8267 85.5048 32.8267Z" fill="#333333"/>
</g>
<g filter="url(#filter2_d_93_2708)">
<rect x="139.333" y="15" width="112.333" height="28" rx="8" fill="white" shape-rendering="crispEdges"/>
<rect x="139.583" y="15.25" width="111.833" height="27.5" rx="7.75" stroke="#E0E0E0" stroke-width="0.5" shape-rendering="crispEdges"/>
<path d="M151.083 33.1193C150.441 33.1193 149.894 32.9446 149.442 32.5952C148.991 32.2429 148.646 31.733 148.407 31.0653C148.168 30.3949 148.049 29.5852 148.049 28.6364C148.049 27.6932 148.168 26.8878 148.407 26.2202C148.648 25.5497 148.995 25.0384 149.447 24.6861C149.901 24.331 150.447 24.1534 151.083 24.1534C151.719 24.1534 152.263 24.331 152.715 24.6861C153.17 25.0384 153.516 25.5497 153.755 26.2202C153.996 26.8878 154.117 27.6932 154.117 28.6364C154.117 29.5852 153.998 30.3949 153.759 31.0653C153.521 31.733 153.175 32.2429 152.724 32.5952C152.272 32.9446 151.725 33.1193 151.083 33.1193ZM151.083 32.1818C151.719 32.1818 152.214 31.875 152.566 31.2614C152.918 30.6477 153.094 29.7727 153.094 28.6364C153.094 27.8807 153.013 27.2372 152.851 26.706C152.692 26.1747 152.462 25.7699 152.161 25.4915C151.863 25.2131 151.503 25.0739 151.083 25.0739C150.452 25.0739 149.959 25.3849 149.604 26.0071C149.249 26.6264 149.072 27.5028 149.072 28.6364C149.072 29.392 149.151 30.0341 149.31 30.5625C149.469 31.0909 149.698 31.4929 149.996 31.7685C150.297 32.044 150.66 32.1818 151.083 32.1818ZM158.805 24.2727V33H157.748V25.3807H157.697L155.566 26.7955V25.7216L157.748 24.2727H158.805Z" fill="#7C8FAC"/>
<path d="M197.142 26.3636V27.358H193.184V26.3636H197.142ZM194.338 24.5341H195.511V31.8125C195.511 32.1439 195.559 32.3925 195.655 32.5582C195.755 32.7206 195.881 32.83 196.033 32.8864C196.189 32.9394 196.353 32.9659 196.525 32.9659C196.654 32.9659 196.76 32.9593 196.843 32.946C196.926 32.9295 196.992 32.9162 197.042 32.9062L197.281 33.9602C197.201 33.9901 197.09 34.0199 196.948 34.0497C196.805 34.0829 196.625 34.0994 196.406 34.0994C196.074 34.0994 195.75 34.0282 195.431 33.8857C195.117 33.7431 194.855 33.526 194.646 33.2344C194.44 32.9427 194.338 32.5748 194.338 32.1307V24.5341ZM201.154 34.179C200.67 34.179 200.231 34.0878 199.836 33.9055C199.442 33.7199 199.129 33.4531 198.897 33.1051C198.665 32.7538 198.549 32.3295 198.549 31.8324C198.549 31.3949 198.635 31.0402 198.807 30.7685C198.979 30.4934 199.21 30.2779 199.498 30.1222C199.787 29.9664 200.105 29.8504 200.453 29.7741C200.804 29.6946 201.157 29.6316 201.512 29.5852C201.976 29.5256 202.352 29.4808 202.64 29.451C202.932 29.4179 203.144 29.3632 203.277 29.2869C203.412 29.2107 203.48 29.0781 203.48 28.8892V28.8494C203.48 28.3589 203.346 27.9777 203.078 27.706C202.813 27.4342 202.41 27.2983 201.87 27.2983C201.309 27.2983 200.87 27.4209 200.552 27.6662C200.234 27.9115 200.01 28.1733 199.881 28.4517L198.767 28.054C198.966 27.59 199.231 27.2287 199.563 26.9702C199.898 26.7083 200.262 26.526 200.657 26.4233C201.054 26.3172 201.445 26.2642 201.83 26.2642C202.075 26.2642 202.357 26.294 202.675 26.3537C202.997 26.41 203.306 26.5277 203.605 26.7067C203.906 26.8857 204.157 27.1558 204.355 27.517C204.554 27.8783 204.654 28.3622 204.654 28.9688V34H203.48V32.9659H203.421C203.341 33.1316 203.209 33.3089 203.023 33.4979C202.837 33.6868 202.59 33.8475 202.282 33.9801C201.974 34.1127 201.598 34.179 201.154 34.179ZM201.333 33.125C201.797 33.125 202.188 33.0339 202.506 32.8516C202.827 32.6693 203.069 32.4339 203.232 32.1456C203.398 31.8572 203.48 31.554 203.48 31.2358V30.1619C203.431 30.2216 203.321 30.2763 203.152 30.326C202.987 30.3724 202.794 30.4138 202.576 30.4503C202.36 30.4834 202.15 30.5133 201.944 30.5398C201.742 30.563 201.578 30.5829 201.452 30.5994C201.147 30.6392 200.862 30.7038 200.597 30.7933C200.335 30.8795 200.123 31.0104 199.961 31.1861C199.801 31.3584 199.722 31.5937 199.722 31.892C199.722 32.2997 199.873 32.608 200.174 32.8168C200.479 33.0223 200.865 33.125 201.333 33.125ZM209.878 37.0227C209.311 37.0227 208.824 36.9498 208.416 36.804C208.008 36.6615 207.669 36.4725 207.397 36.2372C207.128 36.0052 206.915 35.7566 206.755 35.4915L207.69 34.8352C207.796 34.9744 207.93 35.1335 208.093 35.3125C208.255 35.4948 208.477 35.6522 208.759 35.7848C209.044 35.9207 209.417 35.9886 209.878 35.9886C210.494 35.9886 211.003 35.8395 211.404 35.5412C211.805 35.2429 212.005 34.7756 212.005 34.1392V32.5881H211.906C211.82 32.7273 211.697 32.8996 211.538 33.1051C211.382 33.3073 211.157 33.4879 210.862 33.647C210.57 33.8028 210.176 33.8807 209.679 33.8807C209.062 33.8807 208.509 33.7348 208.018 33.4432C207.531 33.1515 207.145 32.7273 206.86 32.1705C206.578 31.6136 206.437 30.9375 206.437 30.142C206.437 29.3598 206.575 28.6787 206.85 28.0987C207.125 27.5154 207.508 27.0646 207.998 26.7464C208.489 26.425 209.056 26.2642 209.699 26.2642C210.196 26.2642 210.59 26.3471 210.882 26.5128C211.177 26.6752 211.402 26.8608 211.558 27.0696C211.717 27.2751 211.84 27.4441 211.926 27.5767H212.045V26.3636H213.179V34.2188C213.179 34.875 213.03 35.4086 212.731 35.8196C212.436 36.2339 212.039 36.5372 211.538 36.7294C211.041 36.925 210.487 37.0227 209.878 37.0227ZM209.838 32.8267C210.308 32.8267 210.706 32.719 211.031 32.5036C211.356 32.2881 211.603 31.9782 211.772 31.5739C211.941 31.1695 212.025 30.6856 212.025 30.1222C212.025 29.572 211.942 29.0864 211.777 28.6655C211.611 28.2446 211.366 27.9148 211.041 27.6761C210.716 27.4375 210.315 27.3182 209.838 27.3182C209.341 27.3182 208.926 27.4441 208.595 27.696C208.267 27.9479 208.02 28.286 207.854 28.7102C207.692 29.1345 207.611 29.6051 207.611 30.1222C207.611 30.6525 207.693 31.1214 207.859 31.5291C208.028 31.9335 208.277 32.2517 208.605 32.4837C208.936 32.7124 209.347 32.8267 209.838 32.8267Z" fill="#333333"/>
</g>
<g filter="url(#filter3_d_93_2708)">
<rect x="263.667" y="15" width="112.333" height="28" rx="8" fill="white" shape-rendering="crispEdges"/>
<rect x="263.917" y="15.25" width="111.833" height="27.5" rx="7.75" stroke="#E0E0E0" stroke-width="0.5" shape-rendering="crispEdges"/>
<path d="M275.417 33.1193C274.775 33.1193 274.228 32.9446 273.776 32.5952C273.325 32.2429 272.979 31.733 272.741 31.0653C272.502 30.3949 272.383 29.5852 272.383 28.6364C272.383 27.6932 272.502 26.8878 272.741 26.2202C272.982 25.5497 273.329 25.0384 273.781 24.6861C274.235 24.331 274.781 24.1534 275.417 24.1534C276.053 24.1534 276.597 24.331 277.049 24.6861C277.504 25.0384 277.85 25.5497 278.089 26.2202C278.33 26.8878 278.451 27.6932 278.451 28.6364C278.451 29.5852 278.332 30.3949 278.093 31.0653C277.854 31.733 277.509 32.2429 277.058 32.5952C276.606 32.9446 276.059 33.1193 275.417 33.1193ZM275.417 32.1818C276.053 32.1818 276.548 31.875 276.9 31.2614C277.252 30.6477 277.428 29.7727 277.428 28.6364C277.428 27.8807 277.347 27.2372 277.185 26.706C277.026 26.1747 276.796 25.7699 276.495 25.4915C276.197 25.2131 275.837 25.0739 275.417 25.0739C274.786 25.0739 274.293 25.3849 273.938 26.0071C273.583 26.6264 273.406 27.5028 273.406 28.6364C273.406 29.392 273.485 30.0341 273.644 30.5625C273.803 31.0909 274.032 31.4929 274.33 31.7685C274.631 32.044 274.994 32.1818 275.417 32.1818ZM283.139 24.2727V33H282.082V25.3807H282.031L279.9 26.7955V25.7216L282.082 24.2727H283.139Z" fill="#7C8FAC"/>
<path d="M321.476 26.3636V27.358H317.518V26.3636H321.476ZM318.672 24.5341H319.845V31.8125C319.845 32.1439 319.893 32.3925 319.989 32.5582C320.089 32.7206 320.214 32.83 320.367 32.8864C320.523 32.9394 320.687 32.9659 320.859 32.9659C320.988 32.9659 321.094 32.9593 321.177 32.946C321.26 32.9295 321.326 32.9162 321.376 32.9062L321.615 33.9602C321.535 33.9901 321.424 34.0199 321.282 34.0497C321.139 34.0829 320.959 34.0994 320.74 34.0994C320.408 34.0994 320.084 34.0282 319.765 33.8857C319.451 33.7431 319.189 33.526 318.98 33.2344C318.774 32.9427 318.672 32.5748 318.672 32.1307V24.5341ZM325.488 34.179C325.004 34.179 324.565 34.0878 324.17 33.9055C323.776 33.7199 323.463 33.4531 323.231 33.1051C322.999 32.7538 322.883 32.3295 322.883 31.8324C322.883 31.3949 322.969 31.0402 323.141 30.7685C323.313 30.4934 323.544 30.2779 323.832 30.1222C324.12 29.9664 324.439 29.8504 324.787 29.7741C325.138 29.6946 325.491 29.6316 325.846 29.5852C326.31 29.5256 326.686 29.4808 326.974 29.451C327.266 29.4179 327.478 29.3632 327.611 29.2869C327.746 29.2107 327.814 29.0781 327.814 28.8892V28.8494C327.814 28.3589 327.68 27.9777 327.412 27.706C327.147 27.4342 326.744 27.2983 326.204 27.2983C325.643 27.2983 325.204 27.4209 324.886 27.6662C324.568 27.9115 324.344 28.1733 324.215 28.4517L323.101 28.054C323.3 27.59 323.565 27.2287 323.897 26.9702C324.232 26.7083 324.596 26.526 324.991 26.4233C325.388 26.3172 325.779 26.2642 326.164 26.2642C326.409 26.2642 326.691 26.294 327.009 26.3537C327.33 26.41 327.64 26.5277 327.939 26.7067C328.24 26.8857 328.491 27.1558 328.689 27.517C328.888 27.8783 328.988 28.3622 328.988 28.9688V34H327.814V32.9659H327.755C327.675 33.1316 327.543 33.3089 327.357 33.4979C327.171 33.6868 326.924 33.8475 326.616 33.9801C326.308 34.1127 325.932 34.179 325.488 34.179ZM325.667 33.125C326.131 33.125 326.522 33.0339 326.84 32.8516C327.161 32.6693 327.403 32.4339 327.566 32.1456C327.732 31.8572 327.814 31.554 327.814 31.2358V30.1619C327.765 30.2216 327.655 30.2763 327.486 30.326C327.321 30.3724 327.128 30.4138 326.91 30.4503C326.694 30.4834 326.484 30.5133 326.278 30.5398C326.076 30.563 325.912 30.5829 325.786 30.5994C325.481 30.6392 325.196 30.7038 324.931 30.7933C324.669 30.8795 324.457 31.0104 324.295 31.1861C324.135 31.3584 324.056 31.5937 324.056 31.892C324.056 32.2997 324.207 32.608 324.508 32.8168C324.813 33.0223 325.199 33.125 325.667 33.125ZM334.212 37.0227C333.645 37.0227 333.158 36.9498 332.75 36.804C332.342 36.6615 332.003 36.4725 331.731 36.2372C331.462 36.0052 331.249 35.7566 331.089 35.4915L332.024 34.8352C332.13 34.9744 332.264 35.1335 332.427 35.3125C332.589 35.4948 332.811 35.6522 333.093 35.7848C333.378 35.9207 333.751 35.9886 334.212 35.9886C334.828 35.9886 335.337 35.8395 335.738 35.5412C336.139 35.2429 336.339 34.7756 336.339 34.1392V32.5881H336.24C336.154 32.7273 336.031 32.8996 335.872 33.1051C335.716 33.3073 335.491 33.4879 335.196 33.647C334.904 33.8028 334.51 33.8807 334.013 33.8807C333.396 33.8807 332.843 33.7348 332.352 33.4432C331.865 33.1515 331.479 32.7273 331.194 32.1705C330.912 31.6136 330.771 30.9375 330.771 30.142C330.771 29.3598 330.909 28.6787 331.184 28.0987C331.459 27.5154 331.842 27.0646 332.332 26.7464C332.823 26.425 333.39 26.2642 334.033 26.2642C334.53 26.2642 334.924 26.3471 335.216 26.5128C335.511 26.6752 335.736 26.8608 335.892 27.0696C336.051 27.2751 336.174 27.4441 336.26 27.5767H336.379V26.3636H337.513V34.2188C337.513 34.875 337.364 35.4086 337.065 35.8196C336.77 36.2339 336.373 36.5372 335.872 36.7294C335.375 36.925 334.821 37.0227 334.212 37.0227ZM334.172 32.8267C334.642 32.8267 335.04 32.719 335.365 32.5036C335.69 32.2881 335.937 31.9782 336.106 31.5739C336.275 31.1695 336.359 30.6856 336.359 30.1222C336.359 29.572 336.276 29.0864 336.111 28.6655C335.945 28.2446 335.7 27.9148 335.375 27.6761C335.05 27.4375 334.649 27.3182 334.172 27.3182C333.675 27.3182 333.26 27.4441 332.929 27.696C332.601 27.9479 332.354 28.286 332.188 28.7102C332.026 29.1345 331.945 29.6051 331.945 30.1222C331.945 30.6525 332.027 31.1214 332.193 31.5291C332.362 31.9335 332.611 32.2517 332.939 32.4837C333.27 32.7124 333.681 32.8267 334.172 32.8267Z" fill="#333333"/>
</g>
<g filter="url(#filter4_d_93_2708)">
<rect x="15" y="55" width="112.333" height="28" rx="8" fill="white" shape-rendering="crispEdges"/>
<rect x="15.25" y="55.25" width="111.833" height="27.5" rx="7.75" stroke="#E0E0E0" stroke-width="0.5" shape-rendering="crispEdges"/>
<path d="M26.75 73.1193C26.108 73.1193 25.5611 72.9446 25.1094 72.5952C24.6577 72.2429 24.3125 71.733 24.0739 71.0653C23.8352 70.3949 23.7159 69.5852 23.7159 68.6364C23.7159 67.6932 23.8352 66.8878 24.0739 66.2202C24.3153 65.5497 24.6619 65.0384 25.1136 64.6861C25.5682 64.331 26.1136 64.1534 26.75 64.1534C27.3864 64.1534 27.9304 64.331 28.3821 64.6861C28.8366 65.0384 29.1832 65.5497 29.4219 66.2202C29.6634 66.8878 29.7841 67.6932 29.7841 68.6364C29.7841 69.5852 29.6648 70.3949 29.4261 71.0653C29.1875 71.733 28.8423 72.2429 28.3906 72.5952C27.9389 72.9446 27.392 73.1193 26.75 73.1193ZM26.75 72.1818C27.3864 72.1818 27.8807 71.875 28.233 71.2614C28.5852 70.6477 28.7614 69.7727 28.7614 68.6364C28.7614 67.8807 28.6804 67.2372 28.5185 66.706C28.3594 66.1747 28.1293 65.7699 27.8281 65.4915C27.5298 65.2131 27.1705 65.0739 26.75 65.0739C26.1193 65.0739 25.6264 65.3849 25.2713 66.0071C24.9162 66.6264 24.7386 67.5028 24.7386 68.6364C24.7386 69.392 24.8182 70.0341 24.9773 70.5625C25.1364 71.0909 25.3651 71.4929 25.6634 71.7685C25.9645 72.044 26.3267 72.1818 26.75 72.1818ZM34.4716 64.2727V73H33.4148V65.3807H33.3636L31.233 66.7955V65.7216L33.4148 64.2727H34.4716Z" fill="#7C8FAC"/>
<path d="M72.8086 66.3636V67.358H68.8512V66.3636H72.8086ZM70.0046 64.5341H71.1779V71.8125C71.1779 72.1439 71.226 72.3925 71.3221 72.5582C71.4216 72.7206 71.5475 72.83 71.7 72.8864C71.8557 72.9394 72.0198 72.9659 72.1921 72.9659C72.3214 72.9659 72.4275 72.9593 72.5103 72.946C72.5932 72.9295 72.6595 72.9162 72.7092 72.9062L72.9478 73.9602C72.8683 73.9901 72.7573 74.0199 72.6147 74.0497C72.4722 74.0829 72.2916 74.0994 72.0728 74.0994C71.7414 74.0994 71.4166 74.0282 71.0984 73.8857C70.7835 73.7431 70.5217 73.526 70.3129 73.2344C70.1074 72.9427 70.0046 72.5748 70.0046 72.1307V64.5341ZM76.8207 74.179C76.3368 74.179 75.8976 74.0878 75.5032 73.9055C75.1088 73.7199 74.7956 73.4531 74.5636 73.1051C74.3316 72.7538 74.2156 72.3295 74.2156 71.8324C74.2156 71.3949 74.3018 71.0402 74.4741 70.7685C74.6465 70.4934 74.8768 70.2779 75.1652 70.1222C75.4535 69.9664 75.7717 69.8504 76.1197 69.7741C76.471 69.6946 76.824 69.6316 77.1787 69.5852C77.6427 69.5256 78.0189 69.4808 78.3072 69.451C78.5989 69.4179 78.811 69.3632 78.9436 69.2869C79.0795 69.2107 79.1474 69.0781 79.1474 68.8892V68.8494C79.1474 68.3589 79.0132 67.9777 78.7447 67.706C78.4796 67.4342 78.0769 67.2983 77.5366 67.2983C76.9765 67.2983 76.5373 67.4209 76.2191 67.6662C75.901 67.9115 75.6772 68.1733 75.548 68.4517L74.4343 68.054C74.6332 67.59 74.8984 67.2287 75.2298 66.9702C75.5645 66.7083 75.9291 66.526 76.3235 66.4233C76.7213 66.3172 77.1124 66.2642 77.4968 66.2642C77.7421 66.2642 78.0238 66.294 78.342 66.3537C78.6635 66.41 78.9734 66.5277 79.2717 66.7067C79.5733 66.8857 79.8235 67.1558 80.0224 67.517C80.2213 67.8783 80.3207 68.3622 80.3207 68.9688V74H79.1474V72.9659H79.0877C79.0082 73.1316 78.8756 73.3089 78.69 73.4979C78.5044 73.6868 78.2575 73.8475 77.9492 73.9801C77.641 74.1127 77.2648 74.179 76.8207 74.179ZM76.9997 73.125C77.4637 73.125 77.8548 73.0339 78.173 72.8516C78.4945 72.6693 78.7364 72.4339 78.8988 72.1456C79.0645 71.8572 79.1474 71.554 79.1474 71.2358V70.1619C79.0977 70.2216 78.9883 70.2763 78.8193 70.326C78.6536 70.3724 78.4613 70.4138 78.2426 70.4503C78.0271 70.4834 77.8167 70.5133 77.6112 70.5398C77.409 70.563 77.2449 70.5829 77.119 70.5994C76.8141 70.6392 76.529 70.7038 76.2639 70.7933C76.002 70.8795 75.7899 71.0104 75.6275 71.1861C75.4684 71.3584 75.3889 71.5937 75.3889 71.892C75.3889 72.2997 75.5397 72.608 75.8413 72.8168C76.1462 73.0223 76.5323 73.125 76.9997 73.125ZM85.5446 77.0227C84.9778 77.0227 84.4906 76.9498 84.0829 76.804C83.6753 76.6615 83.3356 76.4725 83.0638 76.2372C82.7953 76.0052 82.5815 75.7566 82.4224 75.4915L83.3571 74.8352C83.4632 74.9744 83.5974 75.1335 83.7598 75.3125C83.9222 75.4948 84.1443 75.6522 84.426 75.7848C84.711 75.9207 85.0839 75.9886 85.5446 75.9886C86.1611 75.9886 86.6698 75.8395 87.0709 75.5412C87.4719 75.2429 87.6724 74.7756 87.6724 74.1392V72.5881H87.573C87.4868 72.7273 87.3642 72.8996 87.2051 73.1051C87.0493 73.3073 86.824 73.4879 86.529 73.647C86.2373 73.8028 85.8429 73.8807 85.3457 73.8807C84.7293 73.8807 84.1758 73.7348 83.6852 73.4432C83.198 73.1515 82.8119 72.7273 82.5268 72.1705C82.2451 71.6136 82.1043 70.9375 82.1043 70.142C82.1043 69.3598 82.2418 68.6787 82.5169 68.0987C82.792 67.5154 83.1748 67.0646 83.6653 66.7464C84.1559 66.425 84.7226 66.2642 85.3656 66.2642C85.8628 66.2642 86.2572 66.3471 86.5489 66.5128C86.8438 66.6752 87.0692 66.8608 87.225 67.0696C87.3841 67.2751 87.5067 67.4441 87.5929 67.5767H87.7122V66.3636H88.8457V74.2188C88.8457 74.875 88.6966 75.4086 88.3983 75.8196C88.1033 76.2339 87.7056 76.5372 87.2051 76.7294C86.7079 76.925 86.1544 77.0227 85.5446 77.0227ZM85.5048 72.8267C85.9755 72.8267 86.3732 72.719 86.698 72.5036C87.0228 72.2881 87.2697 71.9782 87.4388 71.5739C87.6078 71.1695 87.6923 70.6856 87.6923 70.1222C87.6923 69.572 87.6095 69.0864 87.4437 68.6655C87.278 68.2446 87.0328 67.9148 86.7079 67.6761C86.3831 67.4375 85.9821 67.3182 85.5048 67.3182C85.0077 67.3182 84.5934 67.4441 84.2619 67.696C83.9338 67.9479 83.6869 68.286 83.5212 68.7102C83.3588 69.1345 83.2776 69.6051 83.2776 70.1222C83.2776 70.6525 83.3604 71.1214 83.5261 71.5291C83.6952 71.9335 83.9437 72.2517 84.2719 72.4837C84.6033 72.7124 85.0143 72.8267 85.5048 72.8267Z" fill="#333333"/>
</g>
<g filter="url(#filter5_d_93_2708)">
<rect x="139.333" y="55" width="112.333" height="28" rx="8" fill="white" shape-rendering="crispEdges"/>
<rect x="139.583" y="55.25" width="111.833" height="27.5" rx="7.75" stroke="#E0E0E0" stroke-width="0.5" shape-rendering="crispEdges"/>
<path d="M151.083 73.1193C150.441 73.1193 149.894 72.9446 149.442 72.5952C148.991 72.2429 148.646 71.733 148.407 71.0653C148.168 70.3949 148.049 69.5852 148.049 68.6364C148.049 67.6932 148.168 66.8878 148.407 66.2202C148.648 65.5497 148.995 65.0384 149.447 64.6861C149.901 64.331 150.447 64.1534 151.083 64.1534C151.719 64.1534 152.263 64.331 152.715 64.6861C153.17 65.0384 153.516 65.5497 153.755 66.2202C153.996 66.8878 154.117 67.6932 154.117 68.6364C154.117 69.5852 153.998 70.3949 153.759 71.0653C153.521 71.733 153.175 72.2429 152.724 72.5952C152.272 72.9446 151.725 73.1193 151.083 73.1193ZM151.083 72.1818C151.719 72.1818 152.214 71.875 152.566 71.2614C152.918 70.6477 153.094 69.7727 153.094 68.6364C153.094 67.8807 153.013 67.2372 152.851 66.706C152.692 66.1747 152.462 65.7699 152.161 65.4915C151.863 65.2131 151.503 65.0739 151.083 65.0739C150.452 65.0739 149.959 65.3849 149.604 66.0071C149.249 66.6264 149.072 67.5028 149.072 68.6364C149.072 69.392 149.151 70.0341 149.31 70.5625C149.469 71.0909 149.698 71.4929 149.996 71.7685C150.297 72.044 150.66 72.1818 151.083 72.1818ZM158.805 64.2727V73H157.748V65.3807H157.697L155.566 66.7955V65.7216L157.748 64.2727H158.805Z" fill="#7C8FAC"/>
<path d="M197.142 66.3636V67.358H193.184V66.3636H197.142ZM194.338 64.5341H195.511V71.8125C195.511 72.1439 195.559 72.3925 195.655 72.5582C195.755 72.7206 195.881 72.83 196.033 72.8864C196.189 72.9394 196.353 72.9659 196.525 72.9659C196.654 72.9659 196.76 72.9593 196.843 72.946C196.926 72.9295 196.992 72.9162 197.042 72.9062L197.281 73.9602C197.201 73.9901 197.09 74.0199 196.948 74.0497C196.805 74.0829 196.625 74.0994 196.406 74.0994C196.074 74.0994 195.75 74.0282 195.431 73.8857C195.117 73.7431 194.855 73.526 194.646 73.2344C194.44 72.9427 194.338 72.5748 194.338 72.1307V64.5341ZM201.154 74.179C200.67 74.179 200.231 74.0878 199.836 73.9055C199.442 73.7199 199.129 73.4531 198.897 73.1051C198.665 72.7538 198.549 72.3295 198.549 71.8324C198.549 71.3949 198.635 71.0402 198.807 70.7685C198.979 70.4934 199.21 70.2779 199.498 70.1222C199.787 69.9664 200.105 69.8504 200.453 69.7741C200.804 69.6946 201.157 69.6316 201.512 69.5852C201.976 69.5256 202.352 69.4808 202.64 69.451C202.932 69.4179 203.144 69.3632 203.277 69.2869C203.412 69.2107 203.48 69.0781 203.48 68.8892V68.8494C203.48 68.3589 203.346 67.9777 203.078 67.706C202.813 67.4342 202.41 67.2983 201.87 67.2983C201.309 67.2983 200.87 67.4209 200.552 67.6662C200.234 67.9115 200.01 68.1733 199.881 68.4517L198.767 68.054C198.966 67.59 199.231 67.2287 199.563 66.9702C199.898 66.7083 200.262 66.526 200.657 66.4233C201.054 66.3172 201.445 66.2642 201.83 66.2642C202.075 66.2642 202.357 66.294 202.675 66.3537C202.997 66.41 203.306 66.5277 203.605 66.7067C203.906 66.8857 204.157 67.1558 204.355 67.517C204.554 67.8783 204.654 68.3622 204.654 68.9688V74H203.48V72.9659H203.421C203.341 73.1316 203.209 73.3089 203.023 73.4979C202.837 73.6868 202.59 73.8475 202.282 73.9801C201.974 74.1127 201.598 74.179 201.154 74.179ZM201.333 73.125C201.797 73.125 202.188 73.0339 202.506 72.8516C202.827 72.6693 203.069 72.4339 203.232 72.1456C203.398 71.8572 203.48 71.554 203.48 71.2358V70.1619C203.431 70.2216 203.321 70.2763 203.152 70.326C202.987 70.3724 202.794 70.4138 202.576 70.4503C202.36 70.4834 202.15 70.5133 201.944 70.5398C201.742 70.563 201.578 70.5829 201.452 70.5994C201.147 70.6392 200.862 70.7038 200.597 70.7933C200.335 70.8795 200.123 71.0104 199.961 71.1861C199.801 71.3584 199.722 71.5937 199.722 71.892C199.722 72.2997 199.873 72.608 200.174 72.8168C200.479 73.0223 200.865 73.125 201.333 73.125ZM209.878 77.0227C209.311 77.0227 208.824 76.9498 208.416 76.804C208.008 76.6615 207.669 76.4725 207.397 76.2372C207.128 76.0052 206.915 75.7566 206.755 75.4915L207.69 74.8352C207.796 74.9744 207.93 75.1335 208.093 75.3125C208.255 75.4948 208.477 75.6522 208.759 75.7848C209.044 75.9207 209.417 75.9886 209.878 75.9886C210.494 75.9886 211.003 75.8395 211.404 75.5412C211.805 75.2429 212.005 74.7756 212.005 74.1392V72.5881H211.906C211.82 72.7273 211.697 72.8996 211.538 73.1051C211.382 73.3073 211.157 73.4879 210.862 73.647C210.57 73.8028 210.176 73.8807 209.679 73.8807C209.062 73.8807 208.509 73.7348 208.018 73.4432C207.531 73.1515 207.145 72.7273 206.86 72.1705C206.578 71.6136 206.437 70.9375 206.437 70.142C206.437 69.3598 206.575 68.6787 206.85 68.0987C207.125 67.5154 207.508 67.0646 207.998 66.7464C208.489 66.425 209.056 66.2642 209.699 66.2642C210.196 66.2642 210.59 66.3471 210.882 66.5128C211.177 66.6752 211.402 66.8608 211.558 67.0696C211.717 67.2751 211.84 67.4441 211.926 67.5767H212.045V66.3636H213.179V74.2188C213.179 74.875 213.03 75.4086 212.731 75.8196C212.436 76.2339 212.039 76.5372 211.538 76.7294C211.041 76.925 210.487 77.0227 209.878 77.0227ZM209.838 72.8267C210.308 72.8267 210.706 72.719 211.031 72.5036C211.356 72.2881 211.603 71.9782 211.772 71.5739C211.941 71.1695 212.025 70.6856 212.025 70.1222C212.025 69.572 211.942 69.0864 211.777 68.6655C211.611 68.2446 211.366 67.9148 211.041 67.6761C210.716 67.4375 210.315 67.3182 209.838 67.3182C209.341 67.3182 208.926 67.4441 208.595 67.696C208.267 67.9479 208.02 68.286 207.854 68.7102C207.692 69.1345 207.611 69.6051 207.611 70.1222C207.611 70.6525 207.693 71.1214 207.859 71.5291C208.028 71.9335 208.277 72.2517 208.605 72.4837C208.936 72.7124 209.347 72.8267 209.838 72.8267Z" fill="#333333"/>
</g>
<g filter="url(#filter6_d_93_2708)">
<rect x="263.667" y="55" width="112.333" height="28" rx="8" fill="white" shape-rendering="crispEdges"/>
<rect x="263.917" y="55.25" width="111.833" height="27.5" rx="7.75" stroke="#E0E0E0" stroke-width="0.5" shape-rendering="crispEdges"/>
<path d="M275.417 73.1193C274.775 73.1193 274.228 72.9446 273.776 72.5952C273.325 72.2429 272.979 71.733 272.741 71.0653C272.502 70.3949 272.383 69.5852 272.383 68.6364C272.383 67.6932 272.502 66.8878 272.741 66.2202C272.982 65.5497 273.329 65.0384 273.781 64.6861C274.235 64.331 274.781 64.1534 275.417 64.1534C276.053 64.1534 276.597 64.331 277.049 64.6861C277.504 65.0384 277.85 65.5497 278.089 66.2202C278.33 66.8878 278.451 67.6932 278.451 68.6364C278.451 69.5852 278.332 70.3949 278.093 71.0653C277.854 71.733 277.509 72.2429 277.058 72.5952C276.606 72.9446 276.059 73.1193 275.417 73.1193ZM275.417 72.1818C276.053 72.1818 276.548 71.875 276.9 71.2614C277.252 70.6477 277.428 69.7727 277.428 68.6364C277.428 67.8807 277.347 67.2372 277.185 66.706C277.026 66.1747 276.796 65.7699 276.495 65.4915C276.197 65.2131 275.837 65.0739 275.417 65.0739C274.786 65.0739 274.293 65.3849 273.938 66.0071C273.583 66.6264 273.406 67.5028 273.406 68.6364C273.406 69.392 273.485 70.0341 273.644 70.5625C273.803 71.0909 274.032 71.4929 274.33 71.7685C274.631 72.044 274.994 72.1818 275.417 72.1818ZM283.139 64.2727V73H282.082V65.3807H282.031L279.9 66.7955V65.7216L282.082 64.2727H283.139Z" fill="#7C8FAC"/>
<path d="M321.476 66.3636V67.358H317.518V66.3636H321.476ZM318.672 64.5341H319.845V71.8125C319.845 72.1439 319.893 72.3925 319.989 72.5582C320.089 72.7206 320.214 72.83 320.367 72.8864C320.523 72.9394 320.687 72.9659 320.859 72.9659C320.988 72.9659 321.094 72.9593 321.177 72.946C321.26 72.9295 321.326 72.9162 321.376 72.9062L321.615 73.9602C321.535 73.9901 321.424 74.0199 321.282 74.0497C321.139 74.0829 320.959 74.0994 320.74 74.0994C320.408 74.0994 320.084 74.0282 319.765 73.8857C319.451 73.7431 319.189 73.526 318.98 73.2344C318.774 72.9427 318.672 72.5748 318.672 72.1307V64.5341ZM325.488 74.179C325.004 74.179 324.565 74.0878 324.17 73.9055C323.776 73.7199 323.463 73.4531 323.231 73.1051C322.999 72.7538 322.883 72.3295 322.883 71.8324C322.883 71.3949 322.969 71.0402 323.141 70.7685C323.313 70.4934 323.544 70.2779 323.832 70.1222C324.12 69.9664 324.439 69.8504 324.787 69.7741C325.138 69.6946 325.491 69.6316 325.846 69.5852C326.31 69.5256 326.686 69.4808 326.974 69.451C327.266 69.4179 327.478 69.3632 327.611 69.2869C327.746 69.2107 327.814 69.0781 327.814 68.8892V68.8494C327.814 68.3589 327.68 67.9777 327.412 67.706C327.147 67.4342 326.744 67.2983 326.204 67.2983C325.643 67.2983 325.204 67.4209 324.886 67.6662C324.568 67.9115 324.344 68.1733 324.215 68.4517L323.101 68.054C323.3 67.59 323.565 67.2287 323.897 66.9702C324.232 66.7083 324.596 66.526 324.991 66.4233C325.388 66.3172 325.779 66.2642 326.164 66.2642C326.409 66.2642 326.691 66.294 327.009 66.3537C327.33 66.41 327.64 66.5277 327.939 66.7067C328.24 66.8857 328.491 67.1558 328.689 67.517C328.888 67.8783 328.988 68.3622 328.988 68.9688V74H327.814V72.9659H327.755C327.675 73.1316 327.543 73.3089 327.357 73.4979C327.171 73.6868 326.924 73.8475 326.616 73.9801C326.308 74.1127 325.932 74.179 325.488 74.179ZM325.667 73.125C326.131 73.125 326.522 73.0339 326.84 72.8516C327.161 72.6693 327.403 72.4339 327.566 72.1456C327.732 71.8572 327.814 71.554 327.814 71.2358V70.1619C327.765 70.2216 327.655 70.2763 327.486 70.326C327.321 70.3724 327.128 70.4138 326.91 70.4503C326.694 70.4834 326.484 70.5133 326.278 70.5398C326.076 70.563 325.912 70.5829 325.786 70.5994C325.481 70.6392 325.196 70.7038 324.931 70.7933C324.669 70.8795 324.457 71.0104 324.295 71.1861C324.135 71.3584 324.056 71.5937 324.056 71.892C324.056 72.2997 324.207 72.608 324.508 72.8168C324.813 73.0223 325.199 73.125 325.667 73.125ZM334.212 77.0227C333.645 77.0227 333.158 76.9498 332.75 76.804C332.342 76.6615 332.003 76.4725 331.731 76.2372C331.462 76.0052 331.249 75.7566 331.089 75.4915L332.024 74.8352C332.13 74.9744 332.264 75.1335 332.427 75.3125C332.589 75.4948 332.811 75.6522 333.093 75.7848C333.378 75.9207 333.751 75.9886 334.212 75.9886C334.828 75.9886 335.337 75.8395 335.738 75.5412C336.139 75.2429 336.339 74.7756 336.339 74.1392V72.5881H336.24C336.154 72.7273 336.031 72.8996 335.872 73.1051C335.716 73.3073 335.491 73.4879 335.196 73.647C334.904 73.8028 334.51 73.8807 334.013 73.8807C333.396 73.8807 332.843 73.7348 332.352 73.4432C331.865 73.1515 331.479 72.7273 331.194 72.1705C330.912 71.6136 330.771 70.9375 330.771 70.142C330.771 69.3598 330.909 68.6787 331.184 68.0987C331.459 67.5154 331.842 67.0646 332.332 66.7464C332.823 66.425 333.39 66.2642 334.033 66.2642C334.53 66.2642 334.924 66.3471 335.216 66.5128C335.511 66.6752 335.736 66.8608 335.892 67.0696C336.051 67.2751 336.174 67.4441 336.26 67.5767H336.379V66.3636H337.513V74.2188C337.513 74.875 337.364 75.4086 337.065 75.8196C336.77 76.2339 336.373 76.5372 335.872 76.7294C335.375 76.925 334.821 77.0227 334.212 77.0227ZM334.172 72.8267C334.642 72.8267 335.04 72.719 335.365 72.5036C335.69 72.2881 335.937 71.9782 336.106 71.5739C336.275 71.1695 336.359 70.6856 336.359 70.1222C336.359 69.572 336.276 69.0864 336.111 68.6655C335.945 68.2446 335.7 67.9148 335.375 67.6761C335.05 67.4375 334.649 67.3182 334.172 67.3182C333.675 67.3182 333.26 67.4441 332.929 67.696C332.601 67.9479 332.354 68.286 332.188 68.7102C332.026 69.1345 331.945 69.6051 331.945 70.1222C331.945 70.6525 332.027 71.1214 332.193 71.5291C332.362 71.9335 332.611 72.2517 332.939 72.4837C333.27 72.7124 333.681 72.8267 334.172 72.8267Z" fill="#333333"/>
</g>
<g filter="url(#filter7_d_93_2708)">
<rect x="15" y="95" width="112.333" height="28" rx="8" fill="white" shape-rendering="crispEdges"/>
<rect x="15.25" y="95.25" width="111.833" height="27.5" rx="7.75" stroke="#E0E0E0" stroke-width="0.5" shape-rendering="crispEdges"/>
<path d="M26.75 113.119C26.108 113.119 25.5611 112.945 25.1094 112.595C24.6577 112.243 24.3125 111.733 24.0739 111.065C23.8352 110.395 23.7159 109.585 23.7159 108.636C23.7159 107.693 23.8352 106.888 24.0739 106.22C24.3153 105.55 24.6619 105.038 25.1136 104.686C25.5682 104.331 26.1136 104.153 26.75 104.153C27.3864 104.153 27.9304 104.331 28.3821 104.686C28.8366 105.038 29.1832 105.55 29.4219 106.22C29.6634 106.888 29.7841 107.693 29.7841 108.636C29.7841 109.585 29.6648 110.395 29.4261 111.065C29.1875 111.733 28.8423 112.243 28.3906 112.595C27.9389 112.945 27.392 113.119 26.75 113.119ZM26.75 112.182C27.3864 112.182 27.8807 111.875 28.233 111.261C28.5852 110.648 28.7614 109.773 28.7614 108.636C28.7614 107.881 28.6804 107.237 28.5185 106.706C28.3594 106.175 28.1293 105.77 27.8281 105.491C27.5298 105.213 27.1705 105.074 26.75 105.074C26.1193 105.074 25.6264 105.385 25.2713 106.007C24.9162 106.626 24.7386 107.503 24.7386 108.636C24.7386 109.392 24.8182 110.034 24.9773 110.562C25.1364 111.091 25.3651 111.493 25.6634 111.768C25.9645 112.044 26.3267 112.182 26.75 112.182ZM34.4716 104.273V113H33.4148V105.381H33.3636L31.233 106.795V105.722L33.4148 104.273H34.4716Z" fill="#7C8FAC"/>
<path d="M72.8086 106.364V107.358H68.8512V106.364H72.8086ZM70.0046 104.534H71.1779V111.812C71.1779 112.144 71.226 112.393 71.3221 112.558C71.4216 112.721 71.5475 112.83 71.7 112.886C71.8557 112.939 72.0198 112.966 72.1921 112.966C72.3214 112.966 72.4275 112.959 72.5103 112.946C72.5932 112.929 72.6595 112.916 72.7092 112.906L72.9478 113.96C72.8683 113.99 72.7573 114.02 72.6147 114.05C72.4722 114.083 72.2916 114.099 72.0728 114.099C71.7414 114.099 71.4166 114.028 71.0984 113.886C70.7835 113.743 70.5217 113.526 70.3129 113.234C70.1074 112.943 70.0046 112.575 70.0046 112.131V104.534ZM76.8207 114.179C76.3368 114.179 75.8976 114.088 75.5032 113.906C75.1088 113.72 74.7956 113.453 74.5636 113.105C74.3316 112.754 74.2156 112.33 74.2156 111.832C74.2156 111.395 74.3018 111.04 74.4741 110.768C74.6465 110.493 74.8768 110.278 75.1652 110.122C75.4535 109.966 75.7717 109.85 76.1197 109.774C76.471 109.695 76.824 109.632 77.1787 109.585C77.6427 109.526 78.0189 109.481 78.3072 109.451C78.5989 109.418 78.811 109.363 78.9436 109.287C79.0795 109.211 79.1474 109.078 79.1474 108.889V108.849C79.1474 108.359 79.0132 107.978 78.7447 107.706C78.4796 107.434 78.0769 107.298 77.5366 107.298C76.9765 107.298 76.5373 107.421 76.2191 107.666C75.901 107.911 75.6772 108.173 75.548 108.452L74.4343 108.054C74.6332 107.59 74.8984 107.229 75.2298 106.97C75.5645 106.708 75.9291 106.526 76.3235 106.423C76.7213 106.317 77.1124 106.264 77.4968 106.264C77.7421 106.264 78.0238 106.294 78.342 106.354C78.6635 106.41 78.9734 106.528 79.2717 106.707C79.5733 106.886 79.8235 107.156 80.0224 107.517C80.2213 107.878 80.3207 108.362 80.3207 108.969V114H79.1474V112.966H79.0877C79.0082 113.132 78.8756 113.309 78.69 113.498C78.5044 113.687 78.2575 113.848 77.9492 113.98C77.641 114.113 77.2648 114.179 76.8207 114.179ZM76.9997 113.125C77.4637 113.125 77.8548 113.034 78.173 112.852C78.4945 112.669 78.7364 112.434 78.8988 112.146C79.0645 111.857 79.1474 111.554 79.1474 111.236V110.162C79.0977 110.222 78.9883 110.276 78.8193 110.326C78.6536 110.372 78.4613 110.414 78.2426 110.45C78.0271 110.483 77.8167 110.513 77.6112 110.54C77.409 110.563 77.2449 110.583 77.119 110.599C76.8141 110.639 76.529 110.704 76.2639 110.793C76.002 110.879 75.7899 111.01 75.6275 111.186C75.4684 111.358 75.3889 111.594 75.3889 111.892C75.3889 112.3 75.5397 112.608 75.8413 112.817C76.1462 113.022 76.5323 113.125 76.9997 113.125ZM85.5446 117.023C84.9778 117.023 84.4906 116.95 84.0829 116.804C83.6753 116.661 83.3356 116.473 83.0638 116.237C82.7953 116.005 82.5815 115.757 82.4224 115.491L83.3571 114.835C83.4632 114.974 83.5974 115.134 83.7598 115.312C83.9222 115.495 84.1443 115.652 84.426 115.785C84.711 115.921 85.0839 115.989 85.5446 115.989C86.1611 115.989 86.6698 115.839 87.0709 115.541C87.4719 115.243 87.6724 114.776 87.6724 114.139V112.588H87.573C87.4868 112.727 87.3642 112.9 87.2051 113.105C87.0493 113.307 86.824 113.488 86.529 113.647C86.2373 113.803 85.8429 113.881 85.3457 113.881C84.7293 113.881 84.1758 113.735 83.6852 113.443C83.198 113.152 82.8119 112.727 82.5268 112.17C82.2451 111.614 82.1043 110.937 82.1043 110.142C82.1043 109.36 82.2418 108.679 82.5169 108.099C82.792 107.515 83.1748 107.065 83.6653 106.746C84.1559 106.425 84.7226 106.264 85.3656 106.264C85.8628 106.264 86.2572 106.347 86.5489 106.513C86.8438 106.675 87.0692 106.861 87.225 107.07C87.3841 107.275 87.5067 107.444 87.5929 107.577H87.7122V106.364H88.8457V114.219C88.8457 114.875 88.6966 115.409 88.3983 115.82C88.1033 116.234 87.7056 116.537 87.2051 116.729C86.7079 116.925 86.1544 117.023 85.5446 117.023ZM85.5048 112.827C85.9755 112.827 86.3732 112.719 86.698 112.504C87.0228 112.288 87.2697 111.978 87.4388 111.574C87.6078 111.17 87.6923 110.686 87.6923 110.122C87.6923 109.572 87.6095 109.086 87.4437 108.665C87.278 108.245 87.0328 107.915 86.7079 107.676C86.3831 107.437 85.9821 107.318 85.5048 107.318C85.0077 107.318 84.5934 107.444 84.2619 107.696C83.9338 107.948 83.6869 108.286 83.5212 108.71C83.3588 109.134 83.2776 109.605 83.2776 110.122C83.2776 110.652 83.3604 111.121 83.5261 111.529C83.6952 111.933 83.9437 112.252 84.2719 112.484C84.6033 112.712 85.0143 112.827 85.5048 112.827Z" fill="#333333"/>
</g>
<g filter="url(#filter8_d_93_2708)">
<rect x="139.333" y="95" width="112.333" height="28" rx="8" fill="white" shape-rendering="crispEdges"/>
<rect x="139.583" y="95.25" width="111.833" height="27.5" rx="7.75" stroke="#E0E0E0" stroke-width="0.5" shape-rendering="crispEdges"/>
<path d="M151.083 113.119C150.441 113.119 149.894 112.945 149.442 112.595C148.991 112.243 148.646 111.733 148.407 111.065C148.168 110.395 148.049 109.585 148.049 108.636C148.049 107.693 148.168 106.888 148.407 106.22C148.648 105.55 148.995 105.038 149.447 104.686C149.901 104.331 150.447 104.153 151.083 104.153C151.719 104.153 152.263 104.331 152.715 104.686C153.17 105.038 153.516 105.55 153.755 106.22C153.996 106.888 154.117 107.693 154.117 108.636C154.117 109.585 153.998 110.395 153.759 111.065C153.521 111.733 153.175 112.243 152.724 112.595C152.272 112.945 151.725 113.119 151.083 113.119ZM151.083 112.182C151.719 112.182 152.214 111.875 152.566 111.261C152.918 110.648 153.094 109.773 153.094 108.636C153.094 107.881 153.013 107.237 152.851 106.706C152.692 106.175 152.462 105.77 152.161 105.491C151.863 105.213 151.503 105.074 151.083 105.074C150.452 105.074 149.959 105.385 149.604 106.007C149.249 106.626 149.072 107.503 149.072 108.636C149.072 109.392 149.151 110.034 149.31 110.562C149.469 111.091 149.698 111.493 149.996 111.768C150.297 112.044 150.66 112.182 151.083 112.182ZM158.805 104.273V113H157.748V105.381H157.697L155.566 106.795V105.722L157.748 104.273H158.805Z" fill="#7C8FAC"/>
<path d="M197.142 106.364V107.358H193.184V106.364H197.142ZM194.338 104.534H195.511V111.812C195.511 112.144 195.559 112.393 195.655 112.558C195.755 112.721 195.881 112.83 196.033 112.886C196.189 112.939 196.353 112.966 196.525 112.966C196.654 112.966 196.76 112.959 196.843 112.946C196.926 112.929 196.992 112.916 197.042 112.906L197.281 113.96C197.201 113.99 197.09 114.02 196.948 114.05C196.805 114.083 196.625 114.099 196.406 114.099C196.074 114.099 195.75 114.028 195.431 113.886C195.117 113.743 194.855 113.526 194.646 113.234C194.44 112.943 194.338 112.575 194.338 112.131V104.534ZM201.154 114.179C200.67 114.179 200.231 114.088 199.836 113.906C199.442 113.72 199.129 113.453 198.897 113.105C198.665 112.754 198.549 112.33 198.549 111.832C198.549 111.395 198.635 111.04 198.807 110.768C198.979 110.493 199.21 110.278 199.498 110.122C199.787 109.966 200.105 109.85 200.453 109.774C200.804 109.695 201.157 109.632 201.512 109.585C201.976 109.526 202.352 109.481 202.64 109.451C202.932 109.418 203.144 109.363 203.277 109.287C203.412 109.211 203.48 109.078 203.48 108.889V108.849C203.48 108.359 203.346 107.978 203.078 107.706C202.813 107.434 202.41 107.298 201.87 107.298C201.309 107.298 200.87 107.421 200.552 107.666C200.234 107.911 200.01 108.173 199.881 108.452L198.767 108.054C198.966 107.59 199.231 107.229 199.563 106.97C199.898 106.708 200.262 106.526 200.657 106.423C201.054 106.317 201.445 106.264 201.83 106.264C202.075 106.264 202.357 106.294 202.675 106.354C202.997 106.41 203.306 106.528 203.605 106.707C203.906 106.886 204.157 107.156 204.355 107.517C204.554 107.878 204.654 108.362 204.654 108.969V114H203.48V112.966H203.421C203.341 113.132 203.209 113.309 203.023 113.498C202.837 113.687 202.59 113.848 202.282 113.98C201.974 114.113 201.598 114.179 201.154 114.179ZM201.333 113.125C201.797 113.125 202.188 113.034 202.506 112.852C202.827 112.669 203.069 112.434 203.232 112.146C203.398 111.857 203.48 111.554 203.48 111.236V110.162C203.431 110.222 203.321 110.276 203.152 110.326C202.987 110.372 202.794 110.414 202.576 110.45C202.36 110.483 202.15 110.513 201.944 110.54C201.742 110.563 201.578 110.583 201.452 110.599C201.147 110.639 200.862 110.704 200.597 110.793C200.335 110.879 200.123 111.01 199.961 111.186C199.801 111.358 199.722 111.594 199.722 111.892C199.722 112.3 199.873 112.608 200.174 112.817C200.479 113.022 200.865 113.125 201.333 113.125ZM209.878 117.023C209.311 117.023 208.824 116.95 208.416 116.804C208.008 116.661 207.669 116.473 207.397 116.237C207.128 116.005 206.915 115.757 206.755 115.491L207.69 114.835C207.796 114.974 207.93 115.134 208.093 115.312C208.255 115.495 208.477 115.652 208.759 115.785C209.044 115.921 209.417 115.989 209.878 115.989C210.494 115.989 211.003 115.839 211.404 115.541C211.805 115.243 212.005 114.776 212.005 114.139V112.588H211.906C211.82 112.727 211.697 112.9 211.538 113.105C211.382 113.307 211.157 113.488 210.862 113.647C210.57 113.803 210.176 113.881 209.679 113.881C209.062 113.881 208.509 113.735 208.018 113.443C207.531 113.152 207.145 112.727 206.86 112.17C206.578 111.614 206.437 110.937 206.437 110.142C206.437 109.36 206.575 108.679 206.85 108.099C207.125 107.515 207.508 107.065 207.998 106.746C208.489 106.425 209.056 106.264 209.699 106.264C210.196 106.264 210.59 106.347 210.882 106.513C211.177 106.675 211.402 106.861 211.558 107.07C211.717 107.275 211.84 107.444 211.926 107.577H212.045V106.364H213.179V114.219C213.179 114.875 213.03 115.409 212.731 115.82C212.436 116.234 212.039 116.537 211.538 116.729C211.041 116.925 210.487 117.023 209.878 117.023ZM209.838 112.827C210.308 112.827 210.706 112.719 211.031 112.504C211.356 112.288 211.603 111.978 211.772 111.574C211.941 111.17 212.025 110.686 212.025 110.122C212.025 109.572 211.942 109.086 211.777 108.665C211.611 108.245 211.366 107.915 211.041 107.676C210.716 107.437 210.315 107.318 209.838 107.318C209.341 107.318 208.926 107.444 208.595 107.696C208.267 107.948 208.02 108.286 207.854 108.71C207.692 109.134 207.611 109.605 207.611 110.122C207.611 110.652 207.693 111.121 207.859 111.529C208.028 111.933 208.277 112.252 208.605 112.484C208.936 112.712 209.347 112.827 209.838 112.827Z" fill="#333333"/>
</g>
<g filter="url(#filter9_d_93_2708)">
<rect x="263.667" y="95" width="112.333" height="28" rx="8" fill="white" shape-rendering="crispEdges"/>
<rect x="263.917" y="95.25" width="111.833" height="27.5" rx="7.75" stroke="#E0E0E0" stroke-width="0.5" shape-rendering="crispEdges"/>
<path d="M275.417 113.119C274.775 113.119 274.228 112.945 273.776 112.595C273.325 112.243 272.979 111.733 272.741 111.065C272.502 110.395 272.383 109.585 272.383 108.636C272.383 107.693 272.502 106.888 272.741 106.22C272.982 105.55 273.329 105.038 273.781 104.686C274.235 104.331 274.781 104.153 275.417 104.153C276.053 104.153 276.597 104.331 277.049 104.686C277.504 105.038 277.85 105.55 278.089 106.22C278.33 106.888 278.451 107.693 278.451 108.636C278.451 109.585 278.332 110.395 278.093 111.065C277.854 111.733 277.509 112.243 277.058 112.595C276.606 112.945 276.059 113.119 275.417 113.119ZM275.417 112.182C276.053 112.182 276.548 111.875 276.9 111.261C277.252 110.648 277.428 109.773 277.428 108.636C277.428 107.881 277.347 107.237 277.185 106.706C277.026 106.175 276.796 105.77 276.495 105.491C276.197 105.213 275.837 105.074 275.417 105.074C274.786 105.074 274.293 105.385 273.938 106.007C273.583 106.626 273.406 107.503 273.406 108.636C273.406 109.392 273.485 110.034 273.644 110.562C273.803 111.091 274.032 111.493 274.33 111.768C274.631 112.044 274.994 112.182 275.417 112.182ZM283.139 104.273V113H282.082V105.381H282.031L279.9 106.795V105.722L282.082 104.273H283.139Z" fill="#7C8FAC"/>
<path d="M321.476 106.364V107.358H317.518V106.364H321.476ZM318.672 104.534H319.845V111.812C319.845 112.144 319.893 112.393 319.989 112.558C320.089 112.721 320.214 112.83 320.367 112.886C320.523 112.939 320.687 112.966 320.859 112.966C320.988 112.966 321.094 112.959 321.177 112.946C321.26 112.929 321.326 112.916 321.376 112.906L321.615 113.96C321.535 113.99 321.424 114.02 321.282 114.05C321.139 114.083 320.959 114.099 320.74 114.099C320.408 114.099 320.084 114.028 319.765 113.886C319.451 113.743 319.189 113.526 318.98 113.234C318.774 112.943 318.672 112.575 318.672 112.131V104.534ZM325.488 114.179C325.004 114.179 324.565 114.088 324.17 113.906C323.776 113.72 323.463 113.453 323.231 113.105C322.999 112.754 322.883 112.33 322.883 111.832C322.883 111.395 322.969 111.04 323.141 110.768C323.313 110.493 323.544 110.278 323.832 110.122C324.12 109.966 324.439 109.85 324.787 109.774C325.138 109.695 325.491 109.632 325.846 109.585C326.31 109.526 326.686 109.481 326.974 109.451C327.266 109.418 327.478 109.363 327.611 109.287C327.746 109.211 327.814 109.078 327.814 108.889V108.849C327.814 108.359 327.68 107.978 327.412 107.706C327.147 107.434 326.744 107.298 326.204 107.298C325.643 107.298 325.204 107.421 324.886 107.666C324.568 107.911 324.344 108.173 324.215 108.452L323.101 108.054C323.3 107.59 323.565 107.229 323.897 106.97C324.232 106.708 324.596 106.526 324.991 106.423C325.388 106.317 325.779 106.264 326.164 106.264C326.409 106.264 326.691 106.294 327.009 106.354C327.33 106.41 327.64 106.528 327.939 106.707C328.24 106.886 328.491 107.156 328.689 107.517C328.888 107.878 328.988 108.362 328.988 108.969V114H327.814V112.966H327.755C327.675 113.132 327.543 113.309 327.357 113.498C327.171 113.687 326.924 113.848 326.616 113.98C326.308 114.113 325.932 114.179 325.488 114.179ZM325.667 113.125C326.131 113.125 326.522 113.034 326.84 112.852C327.161 112.669 327.403 112.434 327.566 112.146C327.732 111.857 327.814 111.554 327.814 111.236V110.162C327.765 110.222 327.655 110.276 327.486 110.326C327.321 110.372 327.128 110.414 326.91 110.45C326.694 110.483 326.484 110.513 326.278 110.54C326.076 110.563 325.912 110.583 325.786 110.599C325.481 110.639 325.196 110.704 324.931 110.793C324.669 110.879 324.457 111.01 324.295 111.186C324.135 111.358 324.056 111.594 324.056 111.892C324.056 112.3 324.207 112.608 324.508 112.817C324.813 113.022 325.199 113.125 325.667 113.125ZM334.212 117.023C333.645 117.023 333.158 116.95 332.75 116.804C332.342 116.661 332.003 116.473 331.731 116.237C331.462 116.005 331.249 115.757 331.089 115.491L332.024 114.835C332.13 114.974 332.264 115.134 332.427 115.312C332.589 115.495 332.811 115.652 333.093 115.785C333.378 115.921 333.751 115.989 334.212 115.989C334.828 115.989 335.337 115.839 335.738 115.541C336.139 115.243 336.339 114.776 336.339 114.139V112.588H336.24C336.154 112.727 336.031 112.9 335.872 113.105C335.716 113.307 335.491 113.488 335.196 113.647C334.904 113.803 334.51 113.881 334.013 113.881C333.396 113.881 332.843 113.735 332.352 113.443C331.865 113.152 331.479 112.727 331.194 112.17C330.912 111.614 330.771 110.937 330.771 110.142C330.771 109.36 330.909 108.679 331.184 108.099C331.459 107.515 331.842 107.065 332.332 106.746C332.823 106.425 333.39 106.264 334.033 106.264C334.53 106.264 334.924 106.347 335.216 106.513C335.511 106.675 335.736 106.861 335.892 107.07C336.051 107.275 336.174 107.444 336.26 107.577H336.379V106.364H337.513V114.219C337.513 114.875 337.364 115.409 337.065 115.82C336.77 116.234 336.373 116.537 335.872 116.729C335.375 116.925 334.821 117.023 334.212 117.023ZM334.172 112.827C334.642 112.827 335.04 112.719 335.365 112.504C335.69 112.288 335.937 111.978 336.106 111.574C336.275 111.17 336.359 110.686 336.359 110.122C336.359 109.572 336.276 109.086 336.111 108.665C335.945 108.245 335.7 107.915 335.375 107.676C335.05 107.437 334.649 107.318 334.172 107.318C333.675 107.318 333.26 107.444 332.929 107.696C332.601 107.948 332.354 108.286 332.188 108.71C332.026 109.134 331.945 109.605 331.945 110.122C331.945 110.652 332.027 111.121 332.193 111.529C332.362 111.933 332.611 112.252 332.939 112.484C333.27 112.712 333.681 112.827 334.172 112.827Z" fill="#333333"/>
</g>
</g>
<defs>
<filter id="filter0_f_93_2708" x="0.5" y="0.5" width="390" height="137" filterUnits="userSpaceOnUse" color-interpolation-filters="sRGB">
<feFlood flood-opacity="0" result="BackgroundImageFix"/>
<feBlend mode="normal" in="SourceGraphic" in2="BackgroundImageFix" result="shape"/>
<feGaussianBlur stdDeviation="7.25" result="effect1_foregroundBlur_93_2708"/>
</filter>
<filter id="filter1_d_93_2708" x="13" y="14" width="116.333" height="32" filterUnits="userSpaceOnUse" color-interpolation-filters="sRGB">
<feFlood flood-opacity="0" result="BackgroundImageFix"/>
<feColorMatrix in="SourceAlpha" type="matrix" values="0 0 0 0 0 0 0 0 0 0 0 0 0 0 0 0 0 0 127 0" result="hardAlpha"/>
<feOffset dy="1"/>
<feGaussianBlur stdDeviation="1"/>
<feComposite in2="hardAlpha" operator="out"/>
<feColorMatrix type="matrix" values="0 0 0 0 0 0 0 0 0 0 0 0 0 0 0 0 0 0 0.1 0"/>
<feBlend mode="normal" in2="BackgroundImageFix" result="effect1_dropShadow_93_2708"/>
<feBlend mode="normal" in="SourceGraphic" in2="effect1_dropShadow_93_2708" result="shape"/>
</filter>
<filter id="filter2_d_93_2708" x="137.333" y="14" width="116.333" height="32" filterUnits="userSpaceOnUse" color-interpolation-filters="sRGB">
<feFlood flood-opacity="0" result="BackgroundImageFix"/>
<feColorMatrix in="SourceAlpha" type="matrix" values="0 0 0 0 0 0 0 0 0 0 0 0 0 0 0 0 0 0 127 0" result="hardAlpha"/>
<feOffset dy="1"/>
<feGaussianBlur stdDeviation="1"/>
<feComposite in2="hardAlpha" operator="out"/>
<feColorMatrix type="matrix" values="0 0 0 0 0 0 0 0 0 0 0 0 0 0 0 0 0 0 0.1 0"/>
<feBlend mode="normal" in2="BackgroundImageFix" result="effect1_dropShadow_93_2708"/>
<feBlend mode="normal" in="SourceGraphic" in2="effect1_dropShadow_93_2708" result="shape"/>
</filter>
<filter id="filter3_d_93_2708" x="261.667" y="14" width="116.333" height="32" filterUnits="userSpaceOnUse" color-interpolation-filters="sRGB">
<feFlood flood-opacity="0" result="BackgroundImageFix"/>
<feColorMatrix in="SourceAlpha" type="matrix" values="0 0 0 0 0 0 0 0 0 0 0 0 0 0 0 0 0 0 127 0" result="hardAlpha"/>
<feOffset dy="1"/>
<feGaussianBlur stdDeviation="1"/>
<feComposite in2="hardAlpha" operator="out"/>
<feColorMatrix type="matrix" values="0 0 0 0 0 0 0 0 0 0 0 0 0 0 0 0 0 0 0.1 0"/>
<feBlend mode="normal" in2="BackgroundImageFix" result="effect1_dropShadow_93_2708"/>
<feBlend mode="normal" in="SourceGraphic" in2="effect1_dropShadow_93_2708" result="shape"/>
</filter>
<filter id="filter4_d_93_2708" x="13" y="54" width="116.333" height="32" filterUnits="userSpaceOnUse" color-interpolation-filters="sRGB">
<feFlood flood-opacity="0" result="BackgroundImageFix"/>
<feColorMatrix in="SourceAlpha" type="matrix" values="0 0 0 0 0 0 0 0 0 0 0 0 0 0 0 0 0 0 127 0" result="hardAlpha"/>
<feOffset dy="1"/>
<feGaussianBlur stdDeviation="1"/>
<feComposite in2="hardAlpha" operator="out"/>
<feColorMatrix type="matrix" values="0 0 0 0 0 0 0 0 0 0 0 0 0 0 0 0 0 0 0.1 0"/>
<feBlend mode="normal" in2="BackgroundImageFix" result="effect1_dropShadow_93_2708"/>
<feBlend mode="normal" in="SourceGraphic" in2="effect1_dropShadow_93_2708" result="shape"/>
</filter>
<filter id="filter5_d_93_2708" x="137.333" y="54" width="116.333" height="32" filterUnits="userSpaceOnUse" color-interpolation-filters="sRGB">
<feFlood flood-opacity="0" result="BackgroundImageFix"/>
<feColorMatrix in="SourceAlpha" type="matrix" values="0 0 0 0 0 0 0 0 0 0 0 0 0 0 0 0 0 0 127 0" result="hardAlpha"/>
<feOffset dy="1"/>
<feGaussianBlur stdDeviation="1"/>
<feComposite in2="hardAlpha" operator="out"/>
<feColorMatrix type="matrix" values="0 0 0 0 0 0 0 0 0 0 0 0 0 0 0 0 0 0 0.1 0"/>
<feBlend mode="normal" in2="BackgroundImageFix" result="effect1_dropShadow_93_2708"/>
<feBlend mode="normal" in="SourceGraphic" in2="effect1_dropShadow_93_2708" result="shape"/>
</filter>
<filter id="filter6_d_93_2708" x="261.667" y="54" width="116.333" height="32" filterUnits="userSpaceOnUse" color-interpolation-filters="sRGB">
<feFlood flood-opacity="0" result="BackgroundImageFix"/>
<feColorMatrix in="SourceAlpha" type="matrix" values="0 0 0 0 0 0 0 0 0 0 0 0 0 0 0 0 0 0 127 0" result="hardAlpha"/>
<feOffset dy="1"/>
<feGaussianBlur stdDeviation="1"/>
<feComposite in2="hardAlpha" operator="out"/>
<feColorMatrix type="matrix" values="0 0 0 0 0 0 0 0 0 0 0 0 0 0 0 0 0 0 0.1 0"/>
<feBlend mode="normal" in2="BackgroundImageFix" result="effect1_dropShadow_93_2708"/>
<feBlend mode="normal" in="SourceGraphic" in2="effect1_dropShadow_93_2708" result="shape"/>
</filter>
<filter id="filter7_d_93_2708" x="13" y="94" width="116.333" height="32" filterUnits="userSpaceOnUse" color-interpolation-filters="sRGB">
<feFlood flood-opacity="0" result="BackgroundImageFix"/>
<feColorMatrix in="SourceAlpha" type="matrix" values="0 0 0 0 0 0 0 0 0 0 0 0 0 0 0 0 0 0 127 0" result="hardAlpha"/>
<feOffset dy="1"/>
<feGaussianBlur stdDeviation="1"/>
<feComposite in2="hardAlpha" operator="out"/>
<feColorMatrix type="matrix" values="0 0 0 0 0 0 0 0 0 0 0 0 0 0 0 0 0 0 0.1 0"/>
<feBlend mode="normal" in2="BackgroundImageFix" result="effect1_dropShadow_93_2708"/>
<feBlend mode="normal" in="SourceGraphic" in2="effect1_dropShadow_93_2708" result="shape"/>
</filter>
<filter id="filter8_d_93_2708" x="137.333" y="94" width="116.333" height="32" filterUnits="userSpaceOnUse" color-interpolation-filters="sRGB">
<feFlood flood-opacity="0" result="BackgroundImageFix"/>
<feColorMatrix in="SourceAlpha" type="matrix" values="0 0 0 0 0 0 0 0 0 0 0 0 0 0 0 0 0 0 127 0" result="hardAlpha"/>
<feOffset dy="1"/>
<feGaussianBlur stdDeviation="1"/>
<feComposite in2="hardAlpha" operator="out"/>
<feColorMatrix type="matrix" values="0 0 0 0 0 0 0 0 0 0 0 0 0 0 0 0 0 0 0.1 0"/>
<feBlend mode="normal" in2="BackgroundImageFix" result="effect1_dropShadow_93_2708"/>
<feBlend mode="normal" in="SourceGraphic" in2="effect1_dropShadow_93_2708" result="shape"/>
</filter>
<filter id="filter9_d_93_2708" x="261.667" y="94" width="116.333" height="32" filterUnits="userSpaceOnUse" color-interpolation-filters="sRGB">
<feFlood flood-opacity="0" result="BackgroundImageFix"/>
<feColorMatrix in="SourceAlpha" type="matrix" values="0 0 0 0 0 0 0 0 0 0 0 0 0 0 0 0 0 0 127 0" result="hardAlpha"/>
<feOffset dy="1"/>
<feGaussianBlur stdDeviation="1"/>
<feComposite in2="hardAlpha" operator="out"/>
<feColorMatrix type="matrix" values="0 0 0 0 0 0 0 0 0 0 0 0 0 0 0 0 0 0 0.1 0"/>
<feBlend mode="normal" in2="BackgroundImageFix" result="effect1_dropShadow_93_2708"/>
<feBlend mode="normal" in="SourceGraphic" in2="effect1_dropShadow_93_2708" result="shape"/>
</filter>
</defs>
</svg>
