<svg width="24" height="24" viewBox="0 0 24 24" fill="none" xmlns="http://www.w3.org/2000/svg">
<rect width="24" height="24" rx="12" fill="#ED1C24"/>
<path d="M14 5.75C13.3478 5.75002 12.7043 5.90015 12.1194 6.18879C11.5345 6.47742 11.0239 6.8968 10.6271 7.41446C10.2303 7.93211 9.95793 8.53415 9.83116 9.17395C9.70438 9.81375 9.72657 10.4742 9.896 11.104L5.75 15.25V18.25H8.75V16.75H10.25V15.25H11.75L12.9 14.1C13.26 14.198 13.6267 14.248 14 14.25C15.1272 14.25 16.2082 13.8022 17.0052 13.0052C17.8022 12.2082 18.25 11.1272 18.25 10C18.25 8.87283 17.8022 7.79183 17.0052 6.9948C16.2082 6.19777 15.1272 5.75 14 5.75Z" stroke="white" stroke-width="1.5" stroke-linecap="round" stroke-linejoin="round"/>
<path d="M15 10C15.5523 10 16 9.55228 16 9C16 8.44772 15.5523 8 15 8C14.4477 8 14 8.44772 14 9C14 9.55228 14.4477 10 15 10Z" fill="white"/>
</svg>
