<svg width="25" height="24" viewBox="0 0 25 24" fill="none" xmlns="http://www.w3.org/2000/svg">
<g filter="url(#filter0_i_23_1163)">
<path d="M12.5 10C14.7091 10 16.5 8.20914 16.5 6C16.5 3.79086 14.7091 2 12.5 2C10.2909 2 8.5 3.79086 8.5 6C8.5 8.20914 10.2909 10 12.5 10Z" fill="#ED1C24"/>
</g>
<g filter="url(#filter1_i_23_1163)">
<path d="M12.5 21.001C16.366 21.001 19.5 19.2101 19.5 17.001C19.5 14.7918 16.366 13.001 12.5 13.001C8.63401 13.001 5.5 14.7918 5.5 17.001C5.5 19.2101 8.63401 21.001 12.5 21.001Z" fill="#6B121C"/>
</g>
<defs>
<filter id="filter0_i_23_1163" x="8.5" y="0" width="8" height="10" filterUnits="userSpaceOnUse" color-interpolation-filters="sRGB">
<feFlood flood-opacity="0" result="BackgroundImageFix"/>
<feBlend mode="normal" in="SourceGraphic" in2="BackgroundImageFix" result="shape"/>
<feColorMatrix in="SourceAlpha" type="matrix" values="0 0 0 0 0 0 0 0 0 0 0 0 0 0 0 0 0 0 127 0" result="hardAlpha"/>
<feOffset dy="-2"/>
<feGaussianBlur stdDeviation="1.65"/>
<feComposite in2="hardAlpha" operator="arithmetic" k2="-1" k3="1"/>
<feColorMatrix type="matrix" values="0 0 0 0 1 0 0 0 0 1 0 0 0 0 1 0 0 0 0.35 0"/>
<feBlend mode="normal" in2="shape" result="effect1_innerShadow_23_1163"/>
</filter>
<filter id="filter1_i_23_1163" x="5.5" y="11.001" width="14" height="10" filterUnits="userSpaceOnUse" color-interpolation-filters="sRGB">
<feFlood flood-opacity="0" result="BackgroundImageFix"/>
<feBlend mode="normal" in="SourceGraphic" in2="BackgroundImageFix" result="shape"/>
<feColorMatrix in="SourceAlpha" type="matrix" values="0 0 0 0 0 0 0 0 0 0 0 0 0 0 0 0 0 0 127 0" result="hardAlpha"/>
<feOffset dy="-2"/>
<feGaussianBlur stdDeviation="1.65"/>
<feComposite in2="hardAlpha" operator="arithmetic" k2="-1" k3="1"/>
<feColorMatrix type="matrix" values="0 0 0 0 1 0 0 0 0 1 0 0 0 0 1 0 0 0 0.35 0"/>
<feBlend mode="normal" in2="shape" result="effect1_innerShadow_23_1163"/>
</filter>
</defs>
</svg>
