<svg width="390" height="844" viewBox="0 0 390 844" fill="none" xmlns="http://www.w3.org/2000/svg">
<g clip-path="url(#clip0_13_285)">
<rect width="390" height="844" fill="#F5FAFF"/>
<g clip-path="url(#clip1_13_285)">
<rect x="159.302" y="240" width="71.3963" height="71.3963" rx="14.2793" fill="white"/>
<rect width="71.3963" height="71.3963" transform="translate(159.302 240)" fill="#F18D8D"/>
<rect x="159.302" y="240" width="71.3963" height="71.3963" fill="url(#paint0_linear_13_285)"/>
<g clip-path="url(#clip2_13_285)">
<path d="M186.389 288.72H179.331V268.386H172.968V262.608H192.752V268.386H186.389V288.72ZM205.839 273.433H217.102V287.513C215.762 287.976 214.213 288.354 212.458 288.647C210.727 288.939 208.911 289.086 207.009 289.086C204.498 289.086 202.292 288.598 200.39 287.623C198.513 286.647 197.038 285.16 195.965 283.161C194.917 281.162 194.392 278.638 194.392 275.591C194.392 272.86 194.917 270.495 195.965 268.496C197.013 266.497 198.549 264.961 200.573 263.888C202.621 262.791 205.132 262.242 208.106 262.242C209.74 262.242 211.288 262.401 212.751 262.718C214.213 263.01 215.481 263.4 216.554 263.888L214.323 269.41C213.397 268.947 212.421 268.606 211.397 268.386C210.374 268.142 209.289 268.02 208.143 268.02C206.582 268.02 205.327 268.374 204.376 269.081C203.425 269.788 202.73 270.727 202.292 271.897C201.877 273.067 201.67 274.359 201.67 275.774C201.67 277.383 201.901 278.748 202.365 279.87C202.828 280.991 203.498 281.844 204.376 282.43C205.254 282.99 206.326 283.271 207.594 283.271C207.887 283.271 208.216 283.259 208.582 283.234C208.947 283.21 209.301 283.173 209.642 283.124C210.008 283.076 210.288 283.027 210.483 282.978V278.882H205.839V273.433Z" fill="white"/>
</g>
</g>
<path d="M165.298 334.396H162.578V325.228H159.618V322.972H168.258V325.228H165.298V334.396ZM174.105 327.852H178.825V333.884C178.227 334.087 177.577 334.252 176.873 334.38C176.179 334.498 175.422 334.556 174.601 334.556C173.481 334.556 172.515 334.338 171.705 333.9C170.894 333.463 170.27 332.807 169.833 331.932C169.406 331.058 169.193 329.97 169.193 328.668C169.193 327.474 169.422 326.439 169.881 325.564C170.339 324.69 171.011 324.012 171.897 323.532C172.793 323.052 173.886 322.812 175.177 322.812C175.827 322.812 176.457 322.876 177.065 323.004C177.683 323.132 178.227 323.303 178.697 323.516L177.817 325.676C177.443 325.484 177.033 325.335 176.585 325.228C176.137 325.122 175.667 325.068 175.177 325.068C174.483 325.068 173.897 325.228 173.417 325.548C172.947 325.858 172.595 326.29 172.361 326.844C172.126 327.388 172.009 328.012 172.009 328.716C172.009 329.452 172.11 330.087 172.312 330.62C172.515 331.154 172.819 331.57 173.225 331.868C173.641 332.156 174.169 332.3 174.809 332.3C174.99 332.3 175.166 332.295 175.337 332.284C175.507 332.263 175.667 332.242 175.817 332.22C175.966 332.199 176.099 332.178 176.217 332.156V330.044H174.105V327.852ZM187.776 330.956C187.733 330.775 187.674 330.53 187.6 330.22C187.536 329.911 187.466 329.586 187.392 329.244C187.328 328.903 187.264 328.594 187.2 328.316C187.146 328.028 187.104 327.815 187.072 327.676H187.008C186.986 327.815 186.944 328.028 186.88 328.316C186.826 328.594 186.762 328.903 186.688 329.244C186.613 329.586 186.538 329.916 186.464 330.236C186.4 330.556 186.346 330.823 186.304 331.036L185.504 334.396H182.64L180.192 325.612H182.848L183.728 329.26C183.792 329.516 183.85 329.826 183.904 330.188C183.968 330.551 184.021 330.908 184.064 331.26C184.117 331.612 184.154 331.906 184.176 332.14H184.224C184.234 331.97 184.256 331.751 184.288 331.484C184.33 331.218 184.373 330.951 184.416 330.684C184.469 330.407 184.517 330.162 184.56 329.948C184.602 329.735 184.629 329.591 184.64 329.516L185.6 325.612H188.576L189.472 329.532C189.514 329.703 189.562 329.954 189.616 330.284C189.68 330.604 189.738 330.935 189.792 331.276C189.845 331.618 189.877 331.906 189.888 332.14H189.936C189.957 331.916 189.989 331.628 190.032 331.276C190.085 330.914 190.144 330.551 190.208 330.188C190.272 329.815 190.336 329.506 190.4 329.26L191.312 325.612H193.936L191.456 334.396H188.56L187.776 330.956ZM199.197 325.436C200.339 325.436 201.224 325.703 201.853 326.236C202.483 326.759 202.797 327.538 202.797 328.572V334.396H200.925L200.397 333.212H200.333C200.088 333.522 199.832 333.778 199.565 333.98C199.309 334.183 199.011 334.327 198.669 334.412C198.339 334.508 197.928 334.556 197.437 334.556C196.925 334.556 196.461 334.455 196.045 334.252C195.64 334.05 195.32 333.74 195.085 333.324C194.851 332.908 194.733 332.38 194.733 331.74C194.733 330.802 195.059 330.108 195.709 329.66C196.371 329.212 197.336 328.962 198.605 328.908L200.109 328.86V328.604C200.109 328.178 199.997 327.868 199.773 327.676C199.56 327.484 199.261 327.388 198.877 327.388C198.493 327.388 198.093 327.452 197.677 327.58C197.261 327.698 196.84 327.847 196.413 328.028L195.597 326.236C196.077 325.98 196.621 325.783 197.229 325.644C197.837 325.506 198.493 325.436 199.197 325.436ZM199.293 330.428C198.621 330.45 198.152 330.572 197.885 330.796C197.619 331.01 197.485 331.303 197.485 331.676C197.485 332.007 197.581 332.247 197.773 332.396C197.965 332.546 198.211 332.62 198.509 332.62C198.957 332.62 199.336 332.487 199.645 332.22C199.955 331.943 200.109 331.57 200.109 331.1V330.396L199.293 330.428ZM207.778 334.396H205.074V322.236H207.778V334.396ZM212.794 334.396H210.09V322.236H212.794V334.396ZM218.897 325.452C219.729 325.452 220.444 325.607 221.041 325.916C221.649 326.215 222.113 326.663 222.433 327.26C222.764 327.847 222.929 328.578 222.929 329.452V330.7H217.377C217.398 331.276 217.585 331.735 217.937 332.076C218.289 332.418 218.79 332.588 219.441 332.588C220.006 332.588 220.518 332.535 220.977 332.428C221.436 332.322 221.91 332.151 222.401 331.916V333.916C221.974 334.14 221.516 334.3 221.025 334.396C220.534 334.503 219.932 334.556 219.217 334.556C218.332 334.556 217.542 334.396 216.849 334.076C216.166 333.756 215.628 333.266 215.233 332.604C214.849 331.932 214.657 331.084 214.657 330.06C214.657 329.015 214.833 328.156 215.185 327.484C215.537 326.802 216.033 326.295 216.673 325.964C217.313 325.623 218.054 325.452 218.897 325.452ZM218.945 327.324C218.529 327.324 218.182 327.458 217.905 327.724C217.638 327.98 217.478 328.391 217.425 328.956H220.449C220.449 328.647 220.39 328.37 220.273 328.124C220.166 327.879 220.001 327.687 219.777 327.548C219.553 327.399 219.276 327.324 218.945 327.324ZM228.73 332.412C229.007 332.412 229.263 332.386 229.498 332.332C229.732 332.279 229.972 332.21 230.218 332.124V334.108C229.93 334.236 229.599 334.343 229.226 334.428C228.852 334.514 228.41 334.556 227.898 334.556C227.354 334.556 226.868 334.471 226.442 334.3C226.026 334.119 225.695 333.815 225.45 333.388C225.215 332.951 225.098 332.348 225.098 331.58V327.628H223.978V326.508L225.322 325.644L226.058 323.788H227.786V325.612H230.122V327.628H227.786V331.484C227.786 331.794 227.871 332.028 228.042 332.188C228.212 332.338 228.442 332.412 228.73 332.412Z" fill="#333333"/>
<g clip-path="url(#clip3_13_285)">
<path d="M213.816 824.622C344.216 766.622 442.816 517.122 475.816 399.622C753.816 110.122 750.815 668.622 734.815 865.122C718.815 1061.62 443.816 1160.62 237.316 1182.62C30.8156 1204.62 50.8156 897.122 213.816 824.622Z" fill="url(#paint1_linear_13_285)"/>
<path d="M137.896 21.124C7.49627 79.124 -91.1037 328.624 -124.104 446.124C-402.104 735.624 -399.104 177.124 -383.104 -19.3759C-367.104 -215.876 -92.1038 -314.876 114.396 -336.876C320.896 -358.876 300.896 -51.376 137.896 21.124Z" fill="url(#paint2_linear_13_285)"/>
</g>
<g clip-path="url(#clip4_13_285)">
<path d="M213.816 824.622C344.216 766.622 442.816 517.122 475.816 399.622C753.816 110.122 750.815 668.622 734.815 865.122C718.815 1061.62 443.816 1160.62 237.316 1182.62C30.8156 1204.62 50.8156 897.122 213.816 824.622Z" fill="url(#paint3_linear_13_285)"/>
<path d="M137.896 21.124C7.49627 79.124 -91.1037 328.624 -124.104 446.124C-402.104 735.624 -399.104 177.124 -383.104 -19.3759C-367.104 -215.876 -92.1038 -314.876 114.396 -336.876C320.896 -358.876 300.896 -51.376 137.896 21.124Z" fill="url(#paint4_linear_13_285)"/>
</g>
</g>
<defs>
<linearGradient id="paint0_linear_13_285" x1="183.393" y1="311.396" x2="183.393" y2="240" gradientUnits="userSpaceOnUse">
<stop stop-color="#ED1C24"/>
<stop offset="0.964" stop-color="#6B121C"/>
</linearGradient>
<linearGradient id="paint1_linear_13_285" x1="413.856" y1="318" x2="413.856" y2="1183.75" gradientUnits="userSpaceOnUse">
<stop stop-color="#ED1C24" stop-opacity="0.08"/>
<stop offset="1" stop-color="#ED1C24" stop-opacity="0"/>
</linearGradient>
<linearGradient id="paint2_linear_13_285" x1="-62.1439" y1="527.746" x2="-62.1439" y2="-338" gradientUnits="userSpaceOnUse">
<stop stop-color="#ED1C24" stop-opacity="0.08"/>
<stop offset="1" stop-color="#ED1C24" stop-opacity="0"/>
</linearGradient>
<linearGradient id="paint3_linear_13_285" x1="413.856" y1="318" x2="413.856" y2="1183.75" gradientUnits="userSpaceOnUse">
<stop stop-color="#ED1C24" stop-opacity="0.08"/>
<stop offset="1" stop-color="#ED1C24" stop-opacity="0"/>
</linearGradient>
<linearGradient id="paint4_linear_13_285" x1="-62.1439" y1="527.746" x2="-62.1439" y2="-338" gradientUnits="userSpaceOnUse">
<stop stop-color="#ED1C24" stop-opacity="0.08"/>
<stop offset="1" stop-color="#ED1C24" stop-opacity="0"/>
</linearGradient>
<clipPath id="clip0_13_285">
<rect width="390" height="844" fill="white"/>
</clipPath>
<clipPath id="clip1_13_285">
<rect x="159.302" y="240" width="71.3963" height="71.3963" rx="14.2793" fill="white"/>
</clipPath>
<clipPath id="clip2_13_285">
<rect width="44.1346" height="26.8433" fill="white" transform="translate(172.968 262.242)"/>
</clipPath>
<clipPath id="clip3_13_285">
<rect width="390" height="175" fill="white"/>
</clipPath>
<clipPath id="clip4_13_285">
<rect width="390" height="242" fill="white" transform="translate(0 602)"/>
</clipPath>
</defs>
</svg>
