<svg width="24" height="24" viewBox="0 0 24 24" fill="none" xmlns="http://www.w3.org/2000/svg">
<g clip-path="url(#clip0_16_1915)">
<path d="M12 22.8756C14.8842 22.8756 17.6503 21.7298 19.6898 19.6904C21.7292 17.6509 22.875 14.8848 22.875 12.0006C22.875 9.11637 21.7292 6.35027 19.6898 4.31081C17.6503 2.27136 14.8842 1.1256 12 1.1256C9.11577 1.1256 6.34967 2.27136 4.31021 4.31081C2.27076 6.35027 1.125 9.11637 1.125 12.0006C1.125 14.8848 2.27076 17.6509 4.31021 19.6904C6.34967 21.7298 9.11577 22.8756 12 22.8756ZM24 12C24 15.1826 22.7357 18.2348 20.4853 20.4853C18.2348 22.7357 15.1826 24 12 24C8.8174 24 5.76516 22.7357 3.51472 20.4853C1.26428 18.2348 0 15.1826 0 12C0 8.8174 1.26428 5.76516 3.51472 3.51472C5.76516 1.26428 8.8174 0 12 0C15.1826 0 18.2348 1.26428 20.4853 3.51472C22.7357 5.76516 24 8.8174 24 12Z" fill="#0052FF"/>
<path d="M12 3V9.3756L17.25 11.7828L12 3Z" fill="#0052FF" fill-opacity="0.6"/>
<path d="M12 3L6.75 11.784L12 9.384V3Z" fill="#0052FF"/>
<path d="M12 15.9155V20.2499L17.25 12.7871L12 15.9155Z" fill="#0052FF" fill-opacity="0.6"/>
<path d="M12 20.2499V15.9143L6.75 12.7871L12 20.2499Z" fill="#0052FF"/>
<path d="M12 14.9172L17.25 11.7828L12.0012 9.38281L12 14.9172Z" fill="#0052FF" fill-opacity="0.2"/>
<path d="M6.75 11.7822L12 14.9154V9.375L6.75 11.7822Z" fill="#0052FF" fill-opacity="0.6"/>
</g>
<defs>
<clipPath id="clip0_16_1915">
<rect width="24" height="24" fill="white"/>
</clipPath>
</defs>
</svg>
