<svg width="24" height="24" viewBox="0 0 24 24" fill="none" xmlns="http://www.w3.org/2000/svg">
<rect width="24" height="24" rx="12" fill="#0054A6"/>
<path d="M10.667 11.9993C10.667 12.353 10.8075 12.6921 11.0575 12.9422C11.3076 13.1922 11.6467 13.3327 12.0003 13.3327C12.3539 13.3327 12.6931 13.1922 12.9431 12.9422C13.1932 12.6921 13.3337 12.353 13.3337 11.9993C13.3337 11.6457 13.1932 11.3066 12.9431 11.0565C12.6931 10.8065 12.3539 10.666 12.0003 10.666C11.6467 10.666 11.3076 10.8065 11.0575 11.0565C10.8075 11.3066 10.667 11.6457 10.667 11.9993Z" stroke="white" stroke-width="1.5" stroke-linecap="round" stroke-linejoin="round"/>
<path d="M18 12C16.4 14.6667 14.4 16 12 16C9.6 16 7.6 14.6667 6 12C7.6 9.33333 9.6 8 12 8C14.4 8 16.4 9.33333 18 12Z" stroke="white" stroke-width="1.5" stroke-linecap="round" stroke-linejoin="round"/>
</svg>
