<svg width="65" height="64" viewBox="0 0 65 64" fill="none" xmlns="http://www.w3.org/2000/svg">
<g clip-path="url(#clip0_293_10610)">
<rect x="0.5" width="64" height="64" rx="8" fill="white"/>
<rect width="64" height="64" transform="translate(0.5)" fill="#F18D8D"/>
<rect x="0.5" width="64" height="64" fill="url(#paint0_linear_293_10610)"/>
<g clip-path="url(#clip1_293_10610)">
<path d="M24.7809 43.6722H18.454V25.445H12.75V20.2653H30.4849V25.445H24.7809V43.6722ZM42.2157 29.969H52.3125V42.5904C51.1105 43.0056 49.7228 43.3443 48.1492 43.6066C46.5976 43.8689 44.9694 44 43.2647 44C41.0138 44 39.0359 43.5629 37.3313 42.6887C35.6485 41.8145 34.3263 40.4813 33.3647 38.6892C32.425 36.8971 31.9551 34.6351 31.9551 31.9032C31.9551 29.4554 32.425 27.3355 33.3647 25.5433C34.3045 23.7512 35.6812 22.3743 37.4952 21.4127C39.331 20.4292 41.582 19.9375 44.2482 19.9375C45.7125 19.9375 47.1003 20.0796 48.4115 20.3637C49.7227 20.6259 50.8592 20.9756 51.8208 21.4127L49.8211 26.3629C48.9906 25.9476 48.1164 25.6417 47.1986 25.445C46.2807 25.2264 45.3081 25.1172 44.281 25.1172C42.8823 25.1172 41.7568 25.4341 40.9045 26.0679C40.0522 26.7017 39.4293 27.5431 39.0359 28.5921C38.6644 29.6412 38.4786 30.7995 38.4786 32.0671C38.4786 33.5095 38.6863 34.7334 39.1015 35.7388C39.5168 36.7441 40.1177 37.5091 40.9045 38.0336C41.6912 38.5362 42.6528 38.7876 43.7892 38.7876C44.0515 38.7876 44.3466 38.7766 44.6744 38.7547C45.0022 38.7329 45.3191 38.7001 45.625 38.6564C45.9529 38.6127 46.2042 38.569 46.3791 38.5253V34.8536H42.2157V29.969Z" fill="white"/>
</g>
</g>
<defs>
<linearGradient id="paint0_linear_293_10610" x1="22.0951" y1="64" x2="22.0951" y2="0" gradientUnits="userSpaceOnUse">
<stop stop-color="#ED1C24"/>
<stop offset="0.964" stop-color="#6B121C"/>
</linearGradient>
<clipPath id="clip0_293_10610">
<rect x="0.5" width="64" height="64" rx="8" fill="white"/>
</clipPath>
<clipPath id="clip1_293_10610">
<rect width="39.5625" height="24.0625" fill="white" transform="translate(12.75 19.9375)"/>
</clipPath>
</defs>
</svg>
