<svg width="40" height="40" viewBox="0 0 40 40" fill="none" xmlns="http://www.w3.org/2000/svg">
<rect width="40" height="40" rx="8" fill="#EFF2F5"/>
<path d="M28.31 12.3784C26.7899 11.6698 25.1442 11.1555 23.4298 10.8584C23.3997 10.8588 23.3709 10.8712 23.3498 10.8927C23.1441 11.2698 22.9041 11.7613 22.7441 12.1384C20.9257 11.8643 19.0766 11.8643 17.2582 12.1384C17.0982 11.7499 16.8582 11.2698 16.6411 10.8927C16.6296 10.8698 16.5954 10.8584 16.5611 10.8584C14.8467 11.1555 13.2124 11.6698 11.6809 12.3784C11.6695 12.3784 11.6581 12.3899 11.6466 12.4013C8.53799 17.0529 7.68082 21.5787 8.10369 26.0588C8.10369 26.0817 8.11512 26.1045 8.13798 26.116C10.1952 27.6246 12.1724 28.5389 14.1267 29.1446C14.161 29.156 14.1953 29.1446 14.2067 29.1218C14.6639 28.4932 15.0753 27.8303 15.4296 27.1331C15.4525 27.0874 15.4296 27.0417 15.3839 27.0303C14.7324 26.7788 14.1153 26.4817 13.5096 26.1388C13.4638 26.116 13.4638 26.0474 13.4981 26.0131C13.6238 25.9217 13.7496 25.8188 13.8753 25.7274C13.8981 25.7045 13.9324 25.7045 13.9553 25.716C17.8868 27.5103 22.1269 27.5103 26.0128 25.716C26.0356 25.7045 26.0699 25.7045 26.0928 25.7274C26.2185 25.8302 26.3442 25.9217 26.4699 26.0245C26.5156 26.0588 26.5156 26.1274 26.4585 26.1502C25.8642 26.5045 25.2356 26.7903 24.5841 27.0417C24.5384 27.0531 24.527 27.1103 24.5384 27.1446C24.9042 27.8417 25.3156 28.5046 25.7613 29.1332C25.7956 29.1446 25.8299 29.156 25.8642 29.1446C27.8299 28.5389 29.8071 27.6246 31.8643 26.116C31.8872 26.1045 31.8986 26.0817 31.8986 26.0588C32.4015 20.8815 31.0643 16.39 28.3557 12.4013C28.3442 12.3899 28.3328 12.3784 28.31 12.3784ZM16.0239 23.3273C14.8467 23.3273 13.8639 22.2416 13.8639 20.9044C13.8639 19.5672 14.8239 18.4815 16.0239 18.4815C17.2354 18.4815 18.1954 19.5786 18.184 20.9044C18.184 22.2416 17.2239 23.3273 16.0239 23.3273ZM23.9898 23.3273C22.8127 23.3273 21.8298 22.2416 21.8298 20.9044C21.8298 19.5672 22.7898 18.4815 23.9898 18.4815C25.2013 18.4815 26.1613 19.5786 26.1499 20.9044C26.1499 22.2416 25.2013 23.3273 23.9898 23.3273Z" fill="#333333"/>
</svg>
