<svg width="41" height="40" viewBox="0 0 41 40" fill="none" xmlns="http://www.w3.org/2000/svg">
<rect x="0.333008" width="40" height="40" rx="8" fill="#EFF2F5"/>
<path d="M10.9856 11.1777H29.6805C31.4441 11.1777 32.333 12.0102 32.333 13.7033V25.5834C32.333 27.2624 31.4441 28.109 29.6805 28.109H10.9856C9.2219 28.109 8.33301 27.2624 8.33301 25.5834V13.7033C8.33301 12.0102 9.2219 11.1777 10.9856 11.1777ZM20.326 23.3118L29.8357 15.5093C30.1743 15.2271 30.4424 14.5781 30.0191 13.9996C29.6099 13.4211 28.8621 13.407 28.3683 13.7597L20.326 19.206L12.2977 13.7597C11.8039 13.407 11.0561 13.4211 10.6469 13.9996C10.2237 14.5781 10.4917 15.2271 10.8304 15.5093L20.326 23.3118Z" fill="#333333"/>
</svg>
