<svg width="40" height="40" viewBox="0 0 40 40" fill="none" xmlns="http://www.w3.org/2000/svg">
<rect width="40" height="40" rx="8" fill="#EFF2F5"/>
<path d="M29.59 8H10.402C9.08195 8 8.00195 9.08 8.00195 10.4V32L12.79 27.2H29.59C30.91 27.2 31.99 26.12 31.99 24.8V10.4C31.99 9.08 30.91 8 29.59 8ZM21.19 22.4H18.79V20H21.19V22.4ZM21.19 16.4C21.19 17.06 20.65 17.6 19.99 17.6C19.33 17.6 18.79 17.06 18.79 16.4V14C18.79 13.34 19.33 12.8 19.99 12.8C20.65 12.8 21.19 13.34 21.19 14V16.4Z" fill="#333333"/>
</svg>
