<svg width="41" height="40" viewBox="0 0 41 40" fill="none" xmlns="http://www.w3.org/2000/svg">
<rect x="0.666992" width="40" height="40" rx="8" fill="#EFF2F5"/>
<path d="M20.667 7.88672C19.0911 7.88672 17.5307 8.19711 16.0748 8.80016C14.6189 9.40322 13.296 10.2871 12.1817 11.4014C9.93127 13.6519 8.66699 16.7041 8.66699 19.8867C8.66699 25.1907 12.111 29.6907 16.875 31.2867C17.475 31.3827 17.667 31.0107 17.667 30.6867V28.6587C14.343 29.3787 13.635 27.0507 13.635 27.0507C13.083 25.6587 12.303 25.2867 12.303 25.2867C11.211 24.5427 12.387 24.5667 12.387 24.5667C13.587 24.6507 14.223 25.8027 14.223 25.8027C15.267 27.6267 17.031 27.0867 17.715 26.7987C17.823 26.0187 18.135 25.4907 18.471 25.1907C15.807 24.8907 13.011 23.8587 13.011 19.2867C13.011 17.9547 13.467 16.8867 14.247 16.0347C14.127 15.7347 13.707 14.4867 14.367 12.8667C14.367 12.8667 15.375 12.5427 17.667 14.0907C18.615 13.8267 19.647 13.6947 20.667 13.6947C21.687 13.6947 22.719 13.8267 23.667 14.0907C25.959 12.5427 26.967 12.8667 26.967 12.8667C27.627 14.4867 27.207 15.7347 27.087 16.0347C27.867 16.8867 28.323 17.9547 28.323 19.2867C28.323 23.8707 25.515 24.8787 22.839 25.1787C23.271 25.5507 23.667 26.2827 23.667 27.3987V30.6867C23.667 31.0107 23.859 31.3947 24.471 31.2867C29.235 29.6787 32.667 25.1907 32.667 19.8867C32.667 18.3109 32.3566 16.7504 31.7535 15.2945C31.1505 13.8386 30.2666 12.5157 29.1523 11.4014C28.038 10.2871 26.7151 9.40322 25.2592 8.80016C23.8033 8.19711 22.2429 7.88672 20.667 7.88672Z" fill="#333333"/>
</svg>
