<svg width="40" height="40" viewBox="0 0 40 40" fill="none" xmlns="http://www.w3.org/2000/svg">
<rect width="40" height="40" rx="8" fill="#EFF2F5"/>
<path d="M20.025 32C26.6509 32 31.999 26.6259 31.999 19.9741C31.999 13.3481 26.6509 8 20.025 8M20.025 32C13.3731 32 7.99902 26.6259 7.99902 19.9741C7.99902 13.3481 13.3731 8 20.025 8M20.025 32V8M30.4779 22.5946V22.5946C23.6544 24.7073 16.3514 24.7073 9.52789 22.5946V22.5946" stroke="#333333" stroke-width="1.5" stroke-linecap="round" stroke-linejoin="round"/>
<path d="M20.013 32C23.3263 32 26 26.6259 26 19.9741C26 13.3481 23.3263 8 20.013 8C16.6867 8 14 13.3481 14 19.9741C14 26.6259 16.6867 32 20.013 32Z" stroke="#333333" stroke-width="1.5" stroke-linecap="round" stroke-linejoin="round"/>
<path d="M30.377 18.0537V18.0537C23.082 16.7664 15.6179 16.7664 8.3229 18.0537V18.0537" stroke="#333333" stroke-width="1.5" stroke-linecap="round" stroke-linejoin="round"/>
</svg>
